<svg width="2586" height="1162" viewBox="0 0 2586 1162" fill="none" xmlns="http://www.w3.org/2000/svg">
<path d="M269.828 20.0586H183.402C175.264 27.5456 167.777 37.3112 160.941 49.3555C154.431 61.0742 151.176 75.3971 151.176 92.3242V433.633C186.658 410.846 229.789 388.385 280.57 366.25C289.685 362.344 298.962 358.6 308.402 355.02C339.978 342.975 366.182 326.536 387.016 305.703C407.849 284.87 423.148 261.921 432.914 236.855C442.68 211.79 446.749 186.562 445.121 161.172C443.819 135.781 436.495 112.507 423.148 91.3477C409.802 70.1888 390.434 53.099 365.043 40.0781C339.652 26.7318 307.914 20.0586 269.828 20.0586ZM341.605 691.934C387.829 691.934 425.427 684.447 454.398 669.473C483.37 654.499 504.529 635.293 517.875 611.855C531.547 588.092 538.22 562.865 537.895 536.172C537.895 509.479 531.872 483.926 519.828 459.512C507.784 434.772 490.531 414.102 468.07 397.5C445.935 380.573 419.405 370.319 388.48 366.738C357.882 363.158 323.702 369.017 285.941 384.316C231.905 407.428 186.983 431.191 151.176 455.605V617.715C151.176 634.642 154.431 649.128 160.941 661.172C167.777 673.216 175.264 682.819 183.402 689.98L341.605 691.934ZM558.402 373.086C581.189 390.339 598.93 412.474 611.625 439.492C624.32 466.51 630.668 495.645 630.668 526.895C630.668 560.423 622.53 591.022 606.254 618.691C590.303 646.361 566.215 668.496 533.988 685.098C502.087 701.374 462.048 709.512 413.871 709.512H0.296875C0.622396 709.512 0.785156 709.349 0.785156 709.023H1.76172C3.0638 708.047 5.66797 706.419 9.57422 704.141C15.7591 700.885 22.7578 695.514 30.5703 688.027C38.3828 680.54 45.2188 671.1 51.0781 659.707C57.263 647.988 60.3555 633.991 60.3555 617.715V92.3242C60.3555 76.0482 57.263 62.2135 51.0781 50.8203C45.2188 39.1016 38.3828 29.4987 30.5703 22.0117C22.7578 14.5247 15.7591 8.99089 9.57422 5.41016C5.66797 3.45703 3.0638 1.99219 1.76172 1.01562H0.785156C0.785156 0.690104 0.622396 0.527344 0.296875 0.527344H287.895C338.676 0.527344 380.18 6.71224 412.406 19.082C444.958 31.4518 470.186 47.0768 488.09 65.957C505.993 84.5117 518.363 104.206 525.199 125.039C532.361 145.547 535.941 164.102 535.941 180.703C535.941 227.578 517.875 267.292 481.742 299.844C466.443 313.19 448.214 325.072 427.055 335.488C474.581 332.233 518.363 344.766 558.402 373.086ZM803.52 616.738C803.52 633.014 806.612 647.012 812.797 658.73C818.982 670.124 825.98 679.564 833.793 687.051C841.605 694.212 848.604 699.583 854.789 703.164V703.652C858.37 705.605 860.974 707.07 862.602 708.047C862.927 708.047 863.09 708.21 863.09 708.535H652.641C652.966 708.535 653.129 708.372 653.129 708.047H653.617C655.245 707.07 658.012 705.443 661.918 703.164C667.777 699.583 674.613 694.212 682.426 687.051C690.238 679.564 697.237 670.124 703.422 658.73C709.607 647.012 712.699 633.014 712.699 616.738L712.211 390.664C712.211 372.435 710.258 357.298 706.352 345.254C702.445 332.884 697.562 322.956 691.703 315.469C685.844 307.982 679.984 302.448 674.125 298.867C668.266 294.961 663.383 292.357 659.477 291.055C657.849 290.404 656.547 290.078 655.57 290.078C654.919 289.753 654.431 289.59 654.105 289.59L653.617 289.102H653.129L803.52 220.742L803.031 312.539L803.52 616.738ZM801.566 136.758L743.461 194.863L685.844 136.758L743.461 78.6523L801.566 136.758ZM1469.54 617.715C1469.54 633.991 1472.63 647.988 1478.81 659.707C1485 671.1 1492 680.54 1499.81 688.027C1507.62 695.189 1514.62 700.56 1520.8 704.141V704.629H1521.29C1524.87 706.582 1527.32 708.047 1528.62 709.023C1528.94 709.023 1529.11 709.186 1529.11 709.512H1318.66C1318.98 709.512 1319.14 709.349 1319.14 709.023H1319.63C1321.26 708.047 1323.86 706.419 1327.45 704.141C1333.3 700.885 1339.98 695.84 1347.46 689.004C1355.28 681.842 1362.11 672.728 1367.97 661.66C1374.16 650.267 1377.74 636.758 1378.71 621.133V420.938C1378.71 393.594 1377.25 369.017 1374.32 347.207C1371.72 325.072 1365.69 306.191 1356.25 290.566C1346.81 274.616 1332.65 262.409 1313.77 253.945C1294.89 245.482 1269.34 241.25 1237.11 241.25C1210.75 241.25 1186.01 244.668 1162.89 251.504C1139.78 258.014 1109.83 271.035 1073.05 290.566V617.715C1073.05 633.991 1076.14 647.988 1082.33 659.707C1088.51 671.1 1095.51 680.54 1103.32 688.027C1111.14 695.189 1118.14 700.56 1124.32 704.141V704.629H1124.81C1128.39 706.582 1130.83 708.047 1132.13 709.023C1132.46 709.023 1132.62 709.186 1132.62 709.512H922.172C922.497 709.512 922.66 709.349 922.66 709.023H923.148C924.776 708.047 927.543 706.419 931.449 704.141C937.309 700.56 944.145 695.189 951.957 688.027C960.095 680.54 967.094 671.1 972.953 659.707C979.138 647.988 982.23 633.991 982.23 617.715V391.641C982.23 373.737 980.115 358.763 975.883 346.719C971.977 334.349 967.094 324.421 961.234 316.934C955.375 309.447 949.516 303.75 943.656 299.844C937.797 295.938 932.914 293.333 929.008 292.031C927.38 291.38 926.078 291.055 925.102 291.055C924.451 290.729 923.962 290.566 923.637 290.566C923.311 290.241 922.986 290.078 922.66 290.078L1073.05 221.719V266.641C1099.42 252.969 1125.79 242.064 1152.15 233.926C1178.52 225.788 1206.84 221.719 1237.11 221.719C1301.24 221.719 1355.6 238.646 1400.2 272.5C1446.42 310.26 1469.54 359.74 1469.54 420.938V617.715ZM1823.05 651.895C1850.72 651.895 1873.99 643.757 1892.88 627.48C1912.08 611.204 1927.05 590.208 1937.8 564.492C1948.86 538.451 1955.7 510.13 1958.3 479.531C1960.91 448.932 1959.28 418.984 1953.42 389.688C1947.89 360.391 1938.12 334.186 1924.12 311.074C1875.3 370.97 1837.21 418.171 1809.87 452.676C1782.85 487.181 1752.74 525.918 1719.54 568.887L1716.61 573.281H1716.12L1714.16 576.211C1725.23 598.997 1739.88 617.389 1758.11 631.387C1776.34 645.059 1797.99 651.895 1823.05 651.895ZM1823.05 250.527C1798.31 250.527 1776.99 257.201 1759.09 270.547C1741.18 283.893 1726.53 301.634 1715.14 323.77C1703.75 345.905 1695.77 370.482 1691.21 397.5C1686.98 424.193 1686.01 451.211 1688.29 478.555C1690.56 505.898 1696.1 531.615 1704.89 555.703C1736.79 514.688 1768.36 474.323 1799.61 434.609C1830.86 394.896 1868.46 348.184 1912.41 294.473C1901.34 280.801 1888.32 270.059 1873.34 262.246C1858.7 254.434 1841.93 250.527 1823.05 250.527ZM2004.2 759.805C2028.62 779.336 2048.15 800.169 2062.8 822.305C2077.45 844.44 2087.86 866.576 2094.05 888.711C2100.56 910.846 2103.81 930.866 2103.81 948.77C2103.81 992.064 2093.07 1030.15 2071.59 1063.03C2050.1 1096.23 2019.67 1121.62 1980.28 1139.2C1946.42 1153.85 1910.78 1161.17 1873.34 1161.17C1858.04 1161.17 1842.58 1159.87 1826.96 1157.27C1769.99 1147.83 1720.35 1124.06 1678.03 1085.98C1648.08 1057.33 1620.25 1027.22 1594.54 995.645C1574.03 970.905 1552.54 946.979 1530.08 923.867C1514.78 907.591 1495.25 890.664 1471.49 873.086C1447.4 855.508 1419.08 842.812 1386.53 835C1353.98 827.513 1317.52 830.605 1277.15 844.277C1236.46 858.275 1192.03 888.874 1143.85 936.074L1144.34 842.812C1169.73 816.771 1201.31 799.193 1239.07 790.078C1276.83 780.964 1316.05 781.452 1356.74 791.543C1418.92 807.493 1481.25 847.044 1543.75 910.195C1566.87 933.633 1588.68 957.884 1609.18 982.949C1615.04 989.785 1620.74 996.621 1626.27 1003.46C1645.48 1028.85 1667.13 1051.47 1691.21 1071.33C1752.74 1116.58 1806.94 1136.76 1853.81 1131.88C1900.69 1126.99 1938.12 1106.48 1966.12 1070.35C1994.44 1034.22 2011.2 991.901 2016.41 943.398C2021.62 895.221 2013.32 850.299 1991.51 808.633C1969.7 766.966 1932.26 737.832 1879.2 721.23C1844.7 711.465 1803.52 707.07 1755.67 708.047C1707.82 709.023 1652.48 717.324 1589.65 732.949L1561.82 739.785L1579.4 717.324C1611.62 676.634 1639.78 640.501 1663.87 608.926C1642.39 588.743 1625.46 565.143 1613.09 538.125C1600.72 511.107 1594.54 482.135 1594.54 451.211C1594.54 410.846 1604.79 374.062 1625.3 340.859C1645.8 307.331 1673.31 280.638 1707.82 260.781C1742.65 240.924 1781.06 230.996 1823.05 230.996C1865.69 230.996 1904.43 241.25 1939.26 261.758C1943.49 256.549 1947.89 251.341 1952.45 246.133C1953.75 244.18 1955.38 242.064 1957.33 239.785L1957.82 239.297C1964.65 230.182 1973.77 219.603 1985.16 207.559C1996.55 195.514 2010.23 184.772 2026.18 175.332C2042.13 165.566 2060.19 160.684 2080.38 160.684L2060.84 227.578C2032.85 227.578 2011.85 230.833 1997.86 237.344C1984.18 243.854 1970.35 255.41 1956.35 272.012C1985.65 292.52 2008.92 318.398 2026.18 349.648C2043.43 380.573 2052.05 414.427 2052.05 451.211C2052.05 491.576 2041.64 528.522 2020.8 562.051C2000.3 595.254 1972.79 621.784 1938.29 641.641C1903.78 661.497 1865.37 671.426 1823.05 671.426C1768.36 671.426 1720.35 654.824 1679.01 621.621C1659.15 647.337 1636.85 675.983 1612.11 707.559C1681.12 692.585 1740.86 686.562 1791.31 689.492C1842.09 692.096 1884.9 700.072 1919.73 713.418C1954.56 727.09 1982.72 742.552 2004.2 759.805ZM2206.84 474.16L2493.46 367.227C2475.56 335.651 2453.75 309.121 2428.03 287.637C2402.32 265.827 2374.16 252.643 2343.56 248.086C2312.96 243.203 2281.55 250.365 2249.32 269.57C2222.63 287.474 2206.03 315.469 2199.52 353.555C2193.01 391.641 2195.45 431.842 2206.84 474.16ZM2585.75 352.09L2494.93 384.805L2212.7 492.715C2224.74 529.824 2241.67 564.167 2263.48 595.742C2285.62 626.992 2311.01 651.081 2339.65 668.008C2372.53 685.586 2411.27 691.12 2455.86 684.609C2500.79 677.773 2540.99 658.73 2576.47 627.48H2585.75C2547.99 664.59 2506.97 689.004 2462.7 700.723C2418.43 712.441 2372.2 713.906 2324.03 705.117C2255.67 691.12 2202.61 657.428 2164.85 604.043C2127.41 550.658 2113.74 489.46 2123.83 420.449C2137.5 352.09 2171.03 299.193 2224.42 261.758C2278.13 223.997 2339.33 210.163 2408.01 220.254C2444.47 227.09 2477.02 240.599 2505.67 260.781C2534.64 280.638 2558.08 305.378 2575.98 335C2577.61 337.604 2579.24 340.371 2580.86 343.301L2585.75 352.09Z" fill="black"/>
</svg>
