<svg width="711" height="676" viewBox="0 0 711 676" fill="none" xmlns="http://www.w3.org/2000/svg">
<path d="M684.082 1.45312L696.777 0.964844L710.938 14.6367L699.219 86.4141L689.453 133.777L675.781 196.277L670.898 222.645L659.668 275.379L640.137 371.082L635.742 382.801L633.301 400.867L627.441 424.305L602.539 524.402V528.309L594.238 557.117L597.168 559.559L604.004 555.652L615.234 557.605L622.07 553.699L653.32 551.746L670.41 556.141L674.316 562.977L672.363 571.766L661.133 586.414L630.859 609.852L615.234 614.734V611.316L632.812 595.203L641.602 580.555L638.672 573.719L621.094 578.113L614.258 576.648L611.816 578.113L608.887 577.137L587.891 582.508L581.055 588.855V593.738L574.219 612.781L568.848 618.152L562.988 610.34L566.895 605.945L563.965 601.062L567.871 595.203L563.477 589.344L523.926 606.922L519.043 607.898L513.184 613.27L498.047 616.688L481.445 628.406L477.051 629.383L468.262 639.148L460.449 653.797L464.844 662.098L478.516 672.84L472.656 675.281L447.266 668.934L427.734 646.473L419.922 634.266L420.898 621.57L431.641 620.105L437.012 614.734L484.375 595.203L488.281 586.414L487.305 581.043L489.746 577.137L490.234 568.348L499.512 534.656L505.371 495.105L507.324 484.852L510.742 479.969L508.301 475.574L511.23 456.531L514.648 453.113L518.555 430.164L523.926 392.566L508.301 394.031L499.512 396.961L478.027 403.797L456.543 411.121L414.062 424.793L391.113 436.512L387.695 441.395L379.883 446.277L375.977 455.555L378.418 461.414V466.297L381.836 467.273L387.207 477.527H378.906L354.492 463.367L334.961 432.605L329.59 424.305L320.312 429.676L305.664 449.207H302.734L286.621 466.785L279.297 478.992L226.562 531.238L224.121 538.074L205.078 550.77L191.895 566.395L146.973 601.551L138.672 610.34L123.535 621.57L98.1445 637.195L94.2383 642.078L82.5195 647.938L61.0352 656.238L56.6406 661.121L50.293 660.633L34.668 668.934L17.5781 664.051L0.976562 647.449L0 643.055L1.46484 613.758L14.1602 587.879L28.8086 574.207L49.8047 566.395L67.8711 568.348L74.707 581.043L72.2656 597.156L68.8477 603.016L38.5742 623.035L37.1094 618.641L28.3203 614.734L21.4844 627.918L22.9492 635.73L29.7852 642.566L37.5977 643.543L65.4297 635.242L70.8008 628.895L98.1445 612.781L107.91 607.898L154.785 571.277L164.551 561.512L186.035 542.469L192.871 531.727L203.613 524.891L209.473 517.078L231.445 498.523L244.141 480.457L264.16 462.879L271.484 450.672L284.18 442.859L287.109 432.117L297.363 423.816L311.035 409.168L313.477 408.68L333.496 377.918L341.309 375.477L342.773 367.176L354.98 354.48L382.812 319.324L395.508 293.934L400.391 291.492L402.344 287.098L404.785 285.145L409.668 275.379L415.039 271.961L416.504 264.637L421.387 262.684L437.012 237.293L451.66 212.879H453.613L461.914 196.766L463.867 188.953L482.91 147.449L507.812 82.0195L509.277 71.2773L470.703 86.9023L469.238 83.9727L443.359 93.7383L422.363 98.6211L419.922 101.551L399.902 109.852L392.09 110.34L365.234 118.152L331.543 130.359L322.266 132.312L309.57 139.637L294.434 145.008L286.133 156.727L286.621 162.586L295.41 174.793L291.016 177.234L270.508 163.562L256.348 140.613L252.93 132.801L254.395 128.406L249.023 125.477L257.324 113.758L262.695 111.805L289.062 109.363L307.617 103.504L341.309 96.668L354.98 94.7148L359.863 89.832L369.141 90.8086L383.789 85.4375L387.695 85.9258L395.02 82.0195L407.227 80.5547L409.18 79.0898L452.637 67.3711L458.496 69.3242L461.914 65.9062L498.535 56.1406L501.953 56.6289L528.32 52.2344L533.203 52.7227L534.668 50.7695L561.035 46.375L569.824 43.4453L570.801 20.9844L588.867 22.4492L595.703 27.8203L613.77 35.1445L641.602 29.2852L668.945 26.8438L680.664 23.9141L684.082 1.45312ZM680.176 28.3086L637.207 40.5156L625.977 48.8164L628.418 69.8125L625.977 83.9727L625.488 100.574L620.605 147.938L621.094 160.145L614.746 168.934L610.352 205.066L602.051 235.828L598.145 287.586L585.938 322.254L580.566 355.457L576.66 361.316L574.219 376.941L571.289 383.289L568.359 407.215L559.082 446.766L551.758 463.367L542.969 495.594L544.434 498.523L528.32 534.168L520.02 561.023L511.719 574.695L510.254 581.043L526.367 580.066L532.715 574.695L554.199 569.812L557.617 567.371L572.266 566.395L578.613 562.977L595.215 499.988L599.609 478.504L602.539 471.18L612.793 421.863L615.723 417.469L616.699 402.332L625 353.016L635.742 302.723L636.719 292.469L640.625 275.379V269.031L644.043 267.566L643.066 256.336L645.02 251.941L666.016 132.801L668.457 122.059L671.875 93.7383L680.176 28.3086ZM566.406 60.5352L549.805 62.9766L544.434 62L536.133 68.3477L526.855 70.3008L514.16 71.7656L529.297 83.4844L543.457 103.504L527.832 142.566L506.836 175.77L505.371 181.629L499.512 186.512L493.164 203.602L484.863 212.391L485.352 215.809L473.633 228.016L461.426 252.43L440.918 277.332L427.734 288.562L415.039 312L395.996 337.391L392.578 343.25L387.207 345.203L385.742 352.527L371.094 365.223L364.258 376.941L348.145 393.543L349.121 399.402L342.773 401.844L345.703 406.238L421.387 396.473L422.852 394.031L465.332 390.125L476.074 385.242L480.469 387.684L486.816 384.266L528.32 379.871L530.762 365.711L529.785 357.898L535.645 331.043L540.039 293.934L543.945 283.68L542.969 276.844L550.293 224.598L553.711 179.188L556.641 176.258L561.035 131.824L563.477 118.152L567.383 74.207L566.406 60.5352Z" fill="black"/>
</svg>
