<svg width="725" height="812" viewBox="0 0 725 812" fill="none" xmlns="http://www.w3.org/2000/svg">
<path d="M462.605 0.00390625L479.207 2.44531L490.926 19.5352L505.086 53.7148L504.598 58.5977L510.457 70.8047L538.289 77.6406L562.703 85.9414L575.887 92.7773L599.324 105.961L627.645 131.84L647.664 168.949L651.082 184.086L647.664 187.992L652.547 202.152L648.152 205.57L651.57 219.73L644.246 238.285L636.434 241.215L637.898 248.539L631.062 260.746L626.18 263.188L623.25 271.488L614.461 276.371L608.113 288.09L598.348 294.926L586.141 310.062L580.77 315.434L564.168 327.641L608.113 342.777L638.387 358.402L668.172 380.375L687.215 400.395L690.145 407.23L693.074 410.16L709.188 430.18L722.371 464.359L721.395 478.52L724.812 481.938L724.324 499.516L719.441 530.277L707.234 565.434L700.887 566.898L700.398 573.246L670.613 617.191L663.777 618.656L660.359 625.98L649.129 639.652L637.41 644.047L610.066 670.414L596.883 675.297L592.977 678.227H589.07L579.793 687.992L556.844 701.176L553.914 721.195L550.984 724.125L549.52 733.402L539.266 766.117L519.734 811.039L513.875 809.574L504.109 802.25L508.016 800.785L518.27 783.695L522.664 771.488L529.5 756.352L530.965 747.562L535.848 729.008L541.219 711.918L540.73 704.105H537.312L509.48 718.754L492.391 724.613L454.793 734.867L448.445 737.309L392.781 748.051L342.977 751.469L308.309 749.516L266.805 742.68L254.109 738.285L250.203 739.75L226.766 731.449L188.191 711.43L172.566 695.805L156.941 673.832L150.594 656.742L149.129 635.258L156.453 605.961L160.359 596.195L180.867 570.316L222.859 537.602L234.09 531.742L261.922 517.094L277.547 515.141L282.918 509.281L280.965 494.145L279.012 461.918L282.918 427.25L280.477 409.672L281.941 408.207L279.012 392.582L283.406 365.727L280.965 293.461L283.895 277.348L280.965 274.906L279.988 200.199L280.965 194.828L278.523 174.32L275.594 171.879L274.129 157.23L289.266 148.93H306.355L315.633 152.836L349.324 161.625L362.996 168.461L365.926 208.5L362.508 259.77L364.461 262.211L359.578 292.484L361.531 301.762L358.602 304.691L362.02 308.109L359.09 323.246L356.16 328.129L357.137 342.289V364.75L359.09 369.633L355.184 377.934L357.137 394.047L353.23 398.441L357.137 412.602L346.883 459.965L348.836 471.195L344.93 480.961L347.371 502.934L356.16 501.957L359.578 499.027L403.523 504.887L433.309 517.582L458.211 537.602L464.07 544.438L469.441 564.945L467 569.828L467.977 579.594L459.676 591.312L453.816 592.289L450.398 596.684L438.68 600.102L424.031 604.496L409.871 602.055L404.012 598.148L400.594 589.359L401.57 578.129L404.988 576.176L409.383 564.457H417.684L422.078 559.086H434.773L437.703 548.832L426.961 533.695L396.199 519.535L370.32 517.582L350.301 518.07L347.859 523.441L343.465 527.836L342.488 548.344L339.559 551.273L337.605 571.293L336.141 577.152L334.188 592.777L332.723 594.73L334.676 604.008L326.375 621.586L314.656 661.137L306.355 672.855L299.52 693.363L290.73 704.594L286.336 691.41L287.312 686.527L284.871 684.086L286.336 672.367L283.895 668.949L282.43 660.648L280.477 634.77L279.5 599.125L277.547 540.043L279.988 534.672L274.617 529.789L271.688 533.207H264.852L231.648 553.227L227.742 559.086L221.883 560.062L200.887 578.617L188.68 593.754L177.938 613.285L175.496 640.629L177.449 660.648L188.68 679.203L211.141 702.641L239.949 716.312L273.152 724.125L299.031 725.59L308.309 727.055L351.277 726.078L354.207 727.543L371.297 724.613L392.293 721.684L436.727 708.5L440.145 706.059H448.445L452.352 702.152L474.324 694.828L504.109 680.668L519.246 675.297L526.082 668.949L535.848 665.043L553.426 651.859L555.867 641.605L558.309 617.191V609.379L559.773 578.129L560.75 568.852L558.309 536.137L559.773 512.211L556.844 464.359L554.402 442.875L553.914 430.18L553.426 402.348L550.008 366.703L548.543 355.961L540.242 353.031L513.875 352.543L472.859 357.914L437.703 364.75L428.914 366.215L415.242 345.707L407.918 329.594L410.848 323.246L434.285 323.734L437.215 321.781L456.258 319.828L491.902 309.574L537.312 283.695L534.383 281.254L529.5 252.934L515.828 195.316L513.387 173.832L504.109 139.164L501.18 124.516L496.297 113.285L498.25 105.961L495.32 102.543L490.926 87.4062L458.699 83.5L448.934 84.9648L396.199 87.4062L355.672 90.8242L264.852 109.867L177.449 140.141L171.59 144.535L167.195 143.559L153.523 152.348L106.648 176.273L104.695 180.18L79.3047 200.199L68.5625 210.941L44.1484 239.262L32.4297 256.84L20.2227 291.508L18.2695 310.551L22.6641 326.664L31.9414 341.801L47.5664 354.984L67.5859 359.379L98.8359 356.938L100.301 354.496L114.949 351.078L141.805 334.477L163.777 312.992L167.684 296.391L166.707 289.555L169.148 281.742L163.777 271.977L157.43 270.023L160.848 266.605H164.754L168.66 264.164L183.309 269.047L203.328 285.648L210.164 293.949L215.535 306.156L210.164 318.852L203.328 326.176V331.547L182.332 355.961H175.496L155.965 369.145L131.551 378.422L120.32 378.91L108.602 384.281L80.7695 384.77L64.168 382.328L33.4062 372.074L10.9453 346.195L7.03906 328.617L2.64453 324.711L0.203125 314.945L2.15625 281.254L12.4102 248.051L27.5469 223.637L54.4023 192.875L68.5625 180.668L101.277 158.695L137.898 135.746L172.566 120.609L185.75 116.215L192.098 112.797L203.328 109.867L270.711 87.4062L282.918 85.9414L285.848 83.0117L292.195 83.9883L323.445 75.6875L366.902 70.3164L404.5 64.9453L459.188 64.457L483.602 65.9219L472.859 36.625L458.699 14.6523L449.91 4.88672L452.84 1.95703L462.605 0.00390625ZM520.223 93.2656L518.758 98.1484L520.223 104.496L533.895 157.23L532.43 161.625L536.824 177.738L537.801 189.945L549.031 227.543L552.449 256.84L555.867 265.629L567.098 256.352L579.305 247.074L596.883 209.965L597.859 200.199L602.254 196.293L605.184 185.062L602.742 179.691L603.719 164.066L597.371 142.094L582.723 121.586L565.145 106.938L526.082 92.7773L520.223 93.2656ZM571.98 359.379L572.957 369.633V381.84L578.328 463.383L575.887 470.219L577.84 495.121L574.91 499.027L577.352 505.863L576.863 519.535L579.793 534.184L578.816 550.297L575.887 558.109L577.84 567.387L576.863 572.758V587.406L573.445 595.707L574.422 602.543L569.051 639.652L575.398 637.699L579.793 629.398L587.117 627.934L602.254 609.867L610.066 608.891L615.438 598.637L618.855 596.684L633.992 578.617L651.57 549.32L667.195 511.234L672.078 491.215L672.566 466.312L674.52 461.918L668.172 441.898L672.078 439.945L665.242 419.926L661.336 416.996L662.312 410.16L646.199 390.629L625.203 376.469L611.043 369.633L575.398 358.402L571.98 359.379Z" fill="black"/>
</svg>
