<svg width="587" height="757" viewBox="0 0 587 757" fill="none" xmlns="http://www.w3.org/2000/svg">
<path d="M416.332 0.671875L419.75 6.04297L425.121 9.94922L428.539 17.2734L410.961 31.4336L386.547 51.9414L388.988 54.8711L397.777 56.3359L399.242 56.8242L426.098 63.1719L461.254 76.3555L466.625 81.7266L472.484 82.2148L496.898 94.4219L530.102 115.418L562.816 150.086L573.07 167.176L583.324 199.891L586.254 232.117L581.371 277.527L570.629 299.012L567.699 307.801L560.375 319.031L555.004 330.75L553.051 333.191L535.961 350.77L534.496 354.676L514.477 376.648L483.227 396.18L445.629 413.27L415.844 421.082L406.078 422.547L380.199 424.988L370.922 422.547H362.133L343.578 417.664L322.094 405.457L308.422 393.738L296.215 382.508L281.078 348.328L276.195 330.262L277.66 305.359L283.52 285.828L284.008 274.109L302.562 250.672L320.141 236.023L327.465 229.188L353.344 218.445L354.32 215.516L369.945 214.539L373.363 212.586L383.617 213.562L396.801 221.863L417.309 240.906L439.281 267.273V270.203L437.816 272.156L428.539 265.809L420.727 262.391L404.125 261.902L400.219 263.855L393.871 261.902L388.988 268.25L383.129 266.785L372.387 274.598L360.18 281.434L357.738 284.363L349.438 285.34L330.395 304.871L326.977 317.566L321.605 331.238L316.234 353.211L322.094 378.113L323.559 382.02L338.207 398.621L347.484 402.527L371.41 408.387L394.359 405.945L418.285 402.527L459.301 387.391L478.832 374.695L516.918 342.469L531.566 323.426L553.539 282.898L560.863 261.414L565.258 232.117L560.863 206.238L557.445 190.125L544.75 162.781L514.477 129.09L489.086 112L468.09 104.188L430.004 90.5156L383.129 86.6094L375.805 87.0977L370.922 85.1445L348.461 86.6094L341.137 89.0508L329.418 100.77L293.773 138.855L273.754 162.293L271.312 166.688L260.082 178.895L255.688 187.195L236.156 214.051L232.738 224.305L228.832 228.211L220.531 252.137L215.16 258.484L209.301 268.738L208.812 276.062L203.93 278.992L202.465 290.711L193.676 317.566L183.91 348.328L178.051 374.695L173.168 383.484L171.703 393.25L164.867 427.43L162.914 457.703L161.938 466.98L160.473 471.863L158.52 506.043L159.008 558.777L160.473 560.73L164.379 591.98L166.332 627.625L171.703 637.879L172.191 648.621L178.051 657.898L211.254 675.477L262.035 690.125L319.164 692.566L347.484 690.613L394.848 679.871L445.141 660.828L464.672 649.109L500.805 618.348L512.523 601.258L522.777 581.727L529.613 546.57L528.637 540.223L522.289 523.621L505.688 506.531L513.5 504.578L515.941 504.09L536.449 510.926L552.562 522.156L559.887 534.852L566.234 550.965L559.887 585.633L554.516 587.586L556.957 591.98L553.539 597.84L538.891 622.254L515.453 647.156L491.527 663.758L451.977 684.266L442.699 687.684L413.891 696.961L388.012 704.285L361.645 708.68L342.602 712.098L264.965 707.703L242.992 705.262L201.488 693.543L192.699 690.125L200.512 713.562L203.93 726.258L208.324 733.094L216.625 749.695L214.672 754.09L209.301 756.531L202.465 751.16L199.047 749.695L193.676 741.883L182.445 717.957L178.539 710.145L171.703 691.102L165.844 678.406L127.27 651.062L106.273 633.484L77.9531 605.652L59.8867 582.703L44.75 555.359L29.125 521.668L25.707 518.25L11.5469 475.77L9.10547 460.145L1.78125 404.48L0.804688 373.719L1.78125 371.277V373.23L3.24609 339.539L8.12891 310.73L15.9414 290.223L18.3828 275.574L26.6836 252.625L30.1016 249.695L29.6133 244.812L44.2617 215.516L54.5156 199.402L70.1406 177.43L81.8594 162.781L92.6016 147.645L109.691 132.02L144.848 104.676L172.191 87.5859L196.117 77.332L214.184 70.4961L221.996 66.5898L250.805 59.2656L274.242 51.9414L300.121 50.9648L326 48.5234H354.809L360.668 43.1523L369.457 32.8984H373.852L384.594 26.0625L387.523 19.2266L393.383 18.25L407.543 2.13672L416.332 0.671875ZM307.934 93.4453L303.539 93.9336L279.613 99.793L263.988 105.652L230.297 121.766L206.371 136.902L179.027 158.387L170.238 170.594L150.707 187.195L137.523 207.703L122.387 229.676L110.668 250.672L99.9258 275.574L83.3242 306.336L78.9297 335.633L76 341.492L71.1172 363.465L72.0938 366.883L65.7461 399.109L63.3047 428.406V430.359L65.2578 466.98L67.2109 489.441L81.8594 548.523L92.6016 570.984L104.32 586.609L110.18 597.84L124.828 613.953L135.082 625.184L151.684 634.949V627.625L148.266 623.719L144.848 602.723L142.895 588.074L140.941 548.523L138.012 500.184L142.895 458.68L141.43 455.75L142.406 440.613L149.242 403.992L153.637 378.113L158.031 362.488L167.309 320.496L181.469 283.387L197.582 245.789L203.93 235.535L221.02 205.75L234.203 185.73L250.805 162.781L258.617 151.551L270.824 136.414L293.285 112.977L311.84 92.4688L307.934 93.4453Z" fill="black"/>
</svg>
