<svg width="686" height="776" viewBox="0 0 686 776" fill="none" xmlns="http://www.w3.org/2000/svg">
<path d="M354.695 0.988281L368.367 1.96484L378.133 7.33594L380.574 14.1719L373.738 34.1914L375.691 35.6562L422.078 40.0508L480.672 53.2344L524.129 70.8125L543.66 81.0664L550.984 84.4844L579.793 103.527L615.438 133.801L632.527 155.773L652.059 183.117V187.023L656.453 189.953L677.449 244.152L679.402 264.66L685.75 303.723V323.742L679.402 367.199L677.449 377.453L657.918 429.211L639.363 458.508L618.367 488.293L606.648 502.453L592.977 513.684L560.262 542.492L528.523 561.047L504.598 576.672L480.184 587.902L469.93 595.715L451.375 602.062L428.426 609.875L425.984 615.246L397.664 621.105L382.527 628.918L344.441 639.66L321.98 646.984L303.426 649.914L282.43 655.773L275.105 657.238L258.016 748.059L252.156 775.402L244.832 771.496L244.344 760.754L254.598 697.277L257.527 667.004L260.457 656.75L239.949 657.727L231.648 658.703L207.234 661.633L198.445 659.68L172.078 660.168L147.664 657.727L96.3945 647.961L90.5352 643.566L69.5391 635.754L36.8242 612.316L20.2227 593.273L16.8047 586.926L8.01562 574.719L6.55078 563L3.62109 559.582L0.203125 540.539L4.10938 513.684L14.3633 490.246L31.9414 464.367L45.6133 449.719L67.5859 434.582L85.6523 420.422L112.02 403.82L135.457 392.59L167.684 376.965L184.285 374.035L187.703 372.082L197.469 350.109L201.375 298.84L207.723 240.246L210.164 212.414L217 110.852L212.117 104.016L214.559 101.086H219.441L221.883 98.1562L256.062 103.039L258.992 105.969L280.477 110.363L292.195 123.059L300.496 131.359V137.707L296.102 142.59L297.078 158.703L286.336 208.996L287.801 220.227L280.965 247.082L281.941 261.242L279.5 273.449L280.965 276.379L277.059 289.562L274.617 304.211L269.734 310.559L266.805 335.949L263.387 345.715L261.434 354.992L299.52 351.086L306.355 352.062L314.168 297.375L317.098 293.957L315.633 290.539L321.492 252.941L324.422 220.227L327.84 214.855L326.375 208.996L331.746 176.77L335.164 148.938V140.148L338.582 133.312L337.605 123.059L339.559 118.664L342 94.7383L344.93 90.832L342 84.9727L347.371 74.7188L344.93 64.4648H338.094L333.211 61.5352L328.328 65.4414L311.238 68.3711L278.035 68.8594L275.105 71.3008L263.875 72.2773L228.719 81.5547L196.004 87.9023L176.473 95.7148L173.543 98.1562L164.266 98.6445L138.387 114.758L131.551 116.223L128.133 121.105L119.832 125.5L115.438 131.359L106.648 133.801L99.3242 138.195L88.0938 156.75L81.2578 164.562L74.4219 188.977L83.2109 209.484L88.582 218.762L83.2109 221.691L64.6562 207.531L52.9375 185.07L45.125 165.051L42.6836 152.844L39.7539 132.336L43.1719 117.688L50.0078 105.48L65.6328 92.2969L86.6289 81.0664L135.457 62.0234L177.449 50.3047L235.555 39.5625L308.797 35.168L351.766 34.1914L354.207 6.35938L352.742 1.47656L354.695 0.988281ZM370.809 66.9062L350.301 194.348L345.906 222.18L342.977 251.965L337.605 282.238L331.746 321.789L328.816 330.09L327.84 353.527L334.676 352.551L387.41 361.828L414.266 369.641L427.449 376.477L445.516 388.684L463.582 408.215L473.836 429.699L476.277 449.719L470.906 470.227L457.723 489.27L431.844 505.383L406.941 514.172L383.504 516.613H381.062L362.996 511.73L350.301 506.359L336.629 488.781L337.605 484.387L333.699 476.574L339.559 458.508L355.184 450.207L362.996 448.742L383.504 457.043L388.875 470.715L391.316 475.109L388.387 481.457L393.27 485.363H401.57L424.031 475.109L442.098 456.066L450.398 436.047L442.586 410.168L426.961 396.496L413.777 388.684L403.523 382.824L394.734 380.383L359.09 372.57L324.422 370.129L311.727 442.395L309.285 444.836L311.238 448.742L306.355 471.203V474.621L301.961 487.316L302.449 497.082L300.008 501.477L290.73 556.652L284.383 588.391L279.988 625.012L344.441 607.434L346.883 605.48L381.062 593.273L460.652 551.281L464.07 546.887H467.977L519.734 500.5L561.727 457.531L581.746 428.723L599.324 400.891L608.113 380.871L611.531 364.758L614.949 363.293L621.297 338.879L628.133 312.023L632.039 268.078L630.086 229.504L626.668 219.25L620.32 195.812L614.461 184.094L612.996 175.305L608.602 173.84L598.348 155.773L571.492 124.523L559.773 113.293L550.008 111.34L540.73 102.062L530.477 97.1797L523.641 95.7148L509.969 88.3906L490.438 83.9961L484.09 79.6016L463.094 75.207L449.91 72.2773L421.102 68.8594L396.199 64.4648L383.992 65.9297L375.203 64.9531L370.809 66.9062ZM298.055 371.105L276.082 373.059L257.039 376.477L255.574 402.844L252.156 403.82L249.715 415.539L248.25 430.188L244.832 443.371L240.926 470.227L232.625 517.59L224.812 529.309L221.395 535.168V540.051L214.559 560.559L203.328 588.391L204.793 594.25L185.75 635.754L193.562 636.242L234.09 632.824L260.457 628.918L268.27 596.203L271.199 579.113L277.547 536.145L283.406 510.754L289.754 479.016L292.684 454.113L299.52 406.75L304.891 390.637L302.449 386.242L304.891 377.941L301.473 370.617L298.055 371.105ZM190.145 391.125L158.895 401.867L156.453 404.797L135.945 414.074L121.785 417.004L105.672 429.699L67.5859 454.113L59.7734 460.949L36.8242 487.805L22.6641 514.172L19.7344 533.215L22.1758 557.629L26.5703 568.859L45.6133 590.832L50.4961 591.32L57.332 601.574L90.5352 618.176L116.414 626.965L171.102 636.73L173.543 604.016L177.938 580.578L176.961 572.766L178.914 548.352L182.82 497.082L184.773 473.156L190.145 428.234L189.656 415.051L192.586 391.613L190.145 391.125Z" fill="black"/>
</svg>
