<svg width="595" height="734" viewBox="0 0 595 734" fill="none" xmlns="http://www.w3.org/2000/svg">
<path d="M312.215 0.175781L323.445 2.61719L330.77 4.57031L335.652 10.918L334.676 22.1484L331.746 26.543L334.188 29.9609L333.699 39.7266L362.02 38.2617L367.879 39.2383L369.832 36.7969L406.453 35.8203L416.707 39.2383H452.84L459.676 42.6562L475.301 43.6328L515.828 53.3984L519.246 56.3281L528.035 58.7695L530.477 61.6992L539.266 62.6758L549.52 67.5586L550.496 70L556.355 70.9766L577.352 84.1602L586.629 93.4375L592.977 106.133L592 110.527L594.441 114.922L592 127.129L578.328 145.195L546.102 152.031L526.57 148.125L506.551 141.289L500.203 132.012V116.875L506.062 105.156L520.711 97.832L541.707 99.2969L542.195 102.715L553.426 105.156L558.797 117.363L562.215 114.434L561.727 104.668L552.449 94.4141L534.383 83.6719L530.965 84.6484L516.805 82.207H514.363L514.852 78.7891L485.066 71.4648L440.145 70L423.055 71.4648L384.969 72.4414L375.203 74.3945L367.391 72.9297L346.395 76.3477L330.281 74.3945L324.422 90.5078L321.004 113.457L317.586 128.594L318.562 130.547L315.633 135.918L312.215 164.238L307.332 186.699L305.867 205.254L301.473 208.672L300.984 222.344L297.078 228.691L293.172 256.035L289.754 267.754L288.777 280.449L279.5 298.516L280.965 307.793L276.57 316.582V325.371L278.035 328.789L290.242 325.859L313.191 322.441L342 321.465L350.301 316.094L354.207 316.582L380.574 304.375L389.363 296.562L390.34 283.867L395.223 260.43L405.965 232.109L418.66 233.086L430.379 241.875L441.121 247.734L438.68 253.105L448.934 259.941L440.633 267.754L443.562 270.195L444.051 277.52L438.68 278.984L435.262 289.238L425.496 306.816L426.961 313.164L423.055 319.512L421.102 343.926L417.195 349.297L410.848 388.359L412.801 391.777L410.359 393.73L411.336 412.773L408.406 415.215L411.336 422.539L408.406 442.07L410.848 450.859L408.895 453.789L413.289 476.738L402.059 457.207L390.828 409.355L391.316 400.078L388.875 395.195L391.316 389.824L387.898 377.129L387.41 359.062L387.898 329.277L384.48 316.094L377.645 321.465L366.902 323.906L363.973 327.324L331.258 339.531L311.238 342.461L274.129 347.832L272.176 352.715L268.27 362.48L270.711 366.875L266.316 372.734L265.828 399.102L262.898 403.984L261.922 416.191L259.48 420.586L257.039 438.652L252.645 450.371L253.621 455.742L249.227 465.508L249.715 467.949L245.32 491.387L242.391 499.688L237.508 529.961L235.066 533.379L236.043 536.309L231.16 572.441L222.371 614.922L220.906 627.617L273.152 625.664L289.754 626.641L342.488 616.387L366.902 614.922L395.223 606.621L414.754 603.691L429.891 597.344L439.656 594.902L447.469 592.949L453.328 586.113L464.07 584.648L482.625 570.977L488.973 565.117L499.227 559.746L523.152 530.449L536.824 504.57L539.266 480.645L537.312 466.484L531.941 453.789L517.293 441.094L538.289 447.441L551.961 462.09L567.098 488.945L571.98 512.383L570.516 525.566L568.562 550.957L558.797 573.906L549.031 588.066L534.871 603.691L527.547 610.527L522.176 612.969L520.711 617.363L511.434 620.781L502.156 628.594L480.184 635.918L477.742 638.848L460.652 646.66L443.562 648.613L435.75 652.031L408.406 655.449L396.688 658.379L378.133 659.844L358.113 660.82L342 658.867L319.051 660.82H294.637L274.617 659.844L255.574 660.82L248.738 659.844L245.32 655.449L222.859 658.867L219.93 654.473L214.07 656.426L205.281 697.441L202.84 700.371V713.066L195.516 728.691L186.238 733.574L184.285 731.133L185.75 715.508L189.168 708.672L194.539 690.605L193.562 686.699L199.91 671.074L200.398 656.426L163.777 653.008H149.129L143.27 649.59L105.184 649.102L99.3242 647.148L61.7266 651.543L44.1484 654.473L40.7305 659.355L31.4531 665.703L32.4297 679.863L41.707 695L46.5898 702.324L32.918 696.465L30.4766 692.559L24.6172 691.582L11.9219 672.539L8.50391 668.633L3.13281 652.52L1.17969 650.078L0.203125 642.266L5.08594 632.012L12.8984 626.641H19.2461L40.2422 621.758L84.6758 620.781L108.602 619.805L118.855 620.293L116.902 616.387L118.855 600.273L121.297 586.113L125.203 545.098L128.621 507.012L130.086 489.434L133.016 459.16V445.977L141.316 395.684L139.363 390.312L147.176 340.996L120.32 336.113L108.113 329.766L98.8359 310.234L96.3945 297.539L152.547 316.094L156.941 278.496L158.895 260.918L160.848 239.922L163.777 217.949L170.613 163.75L173.543 149.59L178.426 116.875L179.402 102.227L178.914 92.9492L149.129 97.3438L120.32 95.8789L84.1875 92.4609L68.5625 86.6016L60.2617 78.3008L56.3555 70.4883L44.6367 49.4922L43.1719 22.6367L48.543 14.3359L50.9844 15.8008L50.4961 24.1016L50.9844 28.9844L59.7734 38.75L95.418 56.8164L113.484 61.6992L159.383 60.7227L189.168 58.2812L246.785 50.4688L251.18 49.0039L255.574 51.9336L260.945 47.0508L284.383 48.0273L297.078 44.1211L306.355 44.6094L309.285 42.168L307.82 33.3789L310.75 30.4492L312.215 0.175781ZM293.66 80.7422L221.883 87.0898V92.9492L210.164 96.8555L226.277 101.738L230.184 106.133L237.02 109.551L237.996 113.457L244.832 118.828L250.203 146.172L252.156 149.102L253.133 156.914L249.227 160.82L250.691 169.609L237.508 221.855V231.621L228.719 271.172L227.254 283.379L224.324 288.75L225.301 292.656L224.324 307.305L226.277 310.234L220.906 327.324L255.086 326.836L259.48 325.371L259.969 317.559L265.828 280.938L268.758 258.477L278.523 222.344L278.035 215.508L282.43 205.742L280.965 194.023L284.383 180.352L290.73 164.238L293.66 145.195L294.148 113.945L299.031 97.3438L298.543 81.2305L293.66 80.7422ZM239.461 347.344L231.16 348.809L227.742 347.344H216.023L217.488 355.156L212.117 371.27L208.211 397.637L199.91 430.84L193.074 456.23V463.066L190.145 465.508L183.797 488.457L187.215 490.41L182.82 498.223L183.309 507.5L169.637 540.703L168.66 547.539L163.289 549.492L153.035 570L141.316 603.203L132.527 611.992L134.969 621.27L175.984 624.199L202.352 625.176L210.164 622.246L209.188 615.898L210.164 604.668L214.559 586.113L218.953 552.422L221.395 546.562L223.836 521.66L226.277 508.965L227.742 501.641L231.648 486.504L239.461 451.836L241.414 425.957V419.121L243.855 412.773L254.598 354.668L252.156 348.809L239.461 347.344Z" fill="black"/>
</svg>
