<svg width="571" height="808" viewBox="0 0 571 808" fill="none" xmlns="http://www.w3.org/2000/svg">
<path d="M282.43 0.605469L293.172 1.58203L300.496 5L298.055 10.3711L302.449 18.1836V54.8047L316.121 54.3164L346.883 50.8984L366.902 46.9922L384.48 48.457L393.758 45.0391L443.562 42.5977L447.957 44.0625L453.328 41.6211L459.188 43.5742L479.695 46.0156L482.137 48.457L487.02 46.9922L509.48 51.875L513.875 55.293L523.152 53.8281L526.57 57.2461L534.871 59.6875L558.309 74.3359L570.516 96.3086L567.586 97.7734L569.051 101.68L565.145 118.77L560.262 123.652L541.219 137.324L507.039 147.09L503.621 144.16L498.25 148.555L481.16 145.625L458.211 142.207L444.051 132.441L445.516 128.047L442.586 123.652L443.562 116.328L456.746 99.7266L479.695 94.3555L504.598 99.7266L517.781 110.469L515.34 116.328L517.293 118.281L526.082 119.258L537.312 111.934L544.148 88.9844L540.73 87.0312L521.199 75.3125L514.852 77.7539L510.945 73.3594L473.348 71.8945H435.262L421.102 73.8477L415.73 71.8945L399.617 73.3594H397.664L393.27 75.8008L390.34 74.8242L373.738 79.707L349.324 80.1953L346.883 83.6133L328.816 86.543L319.539 85.5664L311.727 90.9375L305.379 89.9609L303.426 91.9141L305.867 97.7734L301.473 102.168L302.449 116.816L300.984 166.133L301.473 168.574L299.031 173.945V245.723L298.055 256.465L293.66 262.324L297.078 264.277L295.125 299.434L295.613 316.035L294.637 317.988L292.195 350.215L292.684 367.305L302.938 367.793L344.441 356.562L375.203 346.309L391.316 333.125L389.363 320.918L392.293 318.477L390.828 305.781L392.293 295.039L392.781 276.484L396.688 280.391L402.059 277.949L426.961 282.344L438.191 287.715L444.539 303.34H445.027L438.191 308.711L439.656 314.57L437.703 316.035L439.168 325.801L433.797 343.867L429.891 362.422L431.844 373.164L428.914 378.535L432.332 387.812L429.891 416.621L434.773 421.992L432.332 427.852L440.145 475.703L453.816 494.258L448.934 495.234L445.516 490.352L442.586 490.84L434.285 485.469L424.031 470.82L419.148 467.402V463.984L415.242 462.52L409.871 450.801L409.383 445.43L405.477 442.012L394.246 392.207L391.805 371.211L390.34 357.051L381.551 360.469L376.668 358.516L373.25 366.328L360.555 367.305L349.812 372.676L332.234 379.023L309.773 384.395L300.008 383.906L290.73 390.742L287.801 420.527L288.289 435.176L286.336 437.129L284.871 477.656L279.988 579.707L278.035 621.699L276.082 663.691L283.406 661.738L301.961 661.25L311.727 661.738L316.121 664.18L323.445 662.715L332.723 666.133L333.211 669.062H339.559L350.301 680.293L353.23 688.594L349.324 690.547L346.883 697.383L327.352 707.637L323.934 706.172L314.168 703.73L325.887 686.641L322.469 681.27L298.055 679.805L294.148 682.246L288.777 680.781L285.359 683.711H276.57L273.641 692.5L273.152 698.848L265.34 780.879L262.41 801.387L258.504 807.734L251.18 807.246L252.156 780.391L253.621 737.422L256.062 716.914L258.016 691.523L258.992 685.664L239.949 693.965L225.301 699.824L222.371 702.754L195.516 711.543L179.891 720.332L177.449 724.727L166.707 731.562H163.289L160.359 734.98L151.082 739.863L127.156 763.301L122.762 769.16L125.691 776.973L143.27 789.668L133.992 792.598L104.695 779.414L89.0703 762.324L92 758.418L87.6055 753.047L87.1172 749.141L100.789 735.957L122.762 723.75L139.852 716.426L142.781 716.914L157.918 709.102L160.359 695.43L158.406 689.082L161.824 683.711L161.336 667.109L162.801 665.645L158.895 648.066L160.848 621.699L158.895 580.684L158.406 567.5L156.941 561.641L155.965 515.254L153.523 459.102V417.109V405.391L149.129 400.508L129.109 395.625L103.23 369.746L98.8359 356.074L102.254 352.656L107.625 358.027L133.504 368.77L153.523 371.211L149.129 357.051L150.105 319.941L146.688 272.578L147.176 208.613L146.688 183.223L146.199 172.48L144.246 144.648L142.781 128.535L139.363 125.117L121.785 130.488L93.4648 133.418L62.7031 130.488L35.3594 125.117L11.9219 108.027L9.96875 101.68L0.203125 80.6836L2.15625 65.5469L6.0625 63.1055L8.01562 65.5469L6.0625 68.9648L9.48047 78.7305L21.6875 88.4961L38.2891 95.8203H81.2578L137.898 87.0312L197.469 76.7773L249.715 66.0352L269.246 64.082L274.617 59.6875L273.641 12.8125L269.734 3.04688L282.43 0.605469ZM260.945 99.2383L256.551 101.68L224.324 106.074L191.609 113.398L186.727 118.281L174.031 121.211L186.727 130.488L198.445 132.93L206.258 138.789L211.141 139.766L217.977 148.555L217 151.484L224.812 155.879L232.625 168.574L229.207 179.805L228.719 194.453L222.371 207.637L226.277 210.566L224.324 219.844V248.164L226.766 253.535L223.348 259.883L227.254 271.113L225.789 287.715L228.23 288.691L222.371 296.016L226.766 314.082L223.836 317.012L221.395 331.172L225.301 344.355L226.277 355.586L225.301 361.934L225.789 374.141L222.859 378.535L225.301 380L270.711 371.699L272.176 358.516L273.152 351.191L274.129 313.105L273.152 306.758L275.594 300.898L275.105 276.973L273.152 271.602L274.129 247.188V239.375L276.082 214.473L275.105 176.875L278.035 147.578L277.547 120.723L276.082 101.68L274.617 99.7266L260.945 99.2383ZM273.641 392.207L262.898 396.602L258.504 395.625L225.301 402.949L220.418 415.156L223.836 418.086L221.883 425.41L217.488 458.613L216.512 506.953L218.953 517.207L215.047 524.043L217.488 530.391L214.559 543.086L216.023 554.805L213.094 558.711L212.117 571.406L211.629 578.242L208.211 591.426L207.723 601.68L210.652 607.539L206.746 630L203.328 635.859L204.793 643.184L200.398 648.555L197.469 661.25L198.445 666.133L192.098 690.547L200.887 686.641L240.926 675.41H243.367L250.691 670.527L258.016 669.062L261.434 638.301L263.875 621.699L265.828 566.523L268.758 515.254L268.27 509.395L270.711 479.609L269.734 469.844L271.199 457.637L268.758 454.219L269.734 438.594L273.641 392.207Z" fill="black"/>
</svg>
