<svg width="639" height="783" viewBox="0 0 639 783" fill="none" xmlns="http://www.w3.org/2000/svg">
<path d="M352.367 0.0703125L361.645 4.46484L370.434 10.8125L359.203 20.0898L353.832 28.8789L328.93 63.5469L358.715 58.6641L362.133 60.1289L375.316 58.1758L399.73 61.1055L431.469 66.9648L441.723 70.3828L473.461 79.1719L483.227 86.0078L500.316 93.332L501.781 95.7734L519.848 105.539L525.707 111.887L546.215 132.883L552.562 144.113L556.469 155.344L566.723 186.594L559.398 217.355L556.469 223.703L540.844 248.117L520.336 265.695L514.477 266.672L507.641 272.531L496.898 273.996L488.598 277.902L482.25 276.926L478.344 281.809L455.395 282.297L426.586 273.996L409.496 262.766L397.777 251.047L390.941 237.375L386.547 218.82L387.523 203.195L395.824 183.664L407.543 171.945L421.215 162.18L437.816 157.297L443.188 161.203L454.906 163.645L461.254 170.48L459.789 175.363L467.602 180.246L478.344 192.453L491.527 204.66L484.203 207.102L470.043 201.73L453.441 205.637L442.699 212.961L436.84 216.379L431.469 224.68L426.586 236.398V252.512L437.328 260.812L462.23 267.16L494.457 260.324L499.34 254.465H507.641L523.754 238.352L533.52 225.168L547.191 193.43L547.68 189.523L544.262 174.875L545.727 167.062L541.82 160.715V156.32L526.195 132.395L511.547 119.699L497.387 113.84L485.668 105.539L459.789 95.7734L454.418 93.8203L415.844 87.4727L375.805 88.4492L347.484 92.8438L326.488 96.75L299.633 107.004L289.867 116.281L285.473 121.652L282.543 131.906L276.195 138.742L275.707 143.137L266.43 158.273L249.34 194.406L242.504 204.172L238.109 223.215L232.738 231.027L228.832 245.188L223.949 258.859L219.555 264.719L198.07 333.566L184.887 403.879L185.375 406.809L180.004 431.711L177.562 459.055L175.609 476.633L174.633 508.859L176.586 511.789L175.121 560.617L179.027 576.242L180.98 582.59L181.957 607.492L188.305 639.23L191.723 648.02V659.25L195.141 658.762L201.488 674.875L225.902 688.059L263.5 699.289L292.309 702.707L338.695 704.66L365.551 701.73L398.754 696.359L402.66 694.895L411.449 669.992V651.926L415.844 637.277L413.402 631.906L421.215 603.586V590.891L424.145 567.941L430.98 535.715L429.516 528.391L434.887 516.672L431.469 513.742L432.934 499.582L431.469 497.629L421.215 498.117L415.355 496.652L393.871 500.559L380.199 502.023L366.039 505.93L357.25 510.324L349.926 520.578L355.785 531.809L363.109 535.227L362.621 540.109L356.273 539.621L333.324 524.973L327.953 515.695L313.305 487.375L313.793 481.516L320.141 479.074L367.016 478.586H430.98L475.902 477.121L495.922 479.074L501.781 476.633L504.711 479.562L515.453 474.68L529.613 475.168L531.566 473.215L538.402 430.246V430.734L549.145 400.949L561.84 405.344L568.188 413.156L557.934 443.918V448.801L553.051 461.008L552.074 475.656L556.469 473.215L593.09 471.75L633.129 469.797L638.988 468.82L598.461 481.027L565.746 486.398L545.727 490.793L538.891 512.766L538.402 521.066L533.52 540.109L531.078 546.457L526.684 565.988L529.125 572.336L520.336 604.074L521.312 609.934L514.477 626.535L513.5 640.695L520.336 638.742L531.566 627.512L537.426 615.793L547.68 622.629L539.867 636.301L526.195 651.926L507.641 668.039L503.734 681.223L500.805 701.242L496.898 705.637L492.504 729.074L483.227 769.602L474.926 771.555L470.043 761.789L475.414 749.094L484.691 705.148L484.203 700.754L489.086 692.941L486.645 683.176L454.906 694.895L448.07 699.289L435.375 700.754L431.469 704.172L401.684 712.961L376.293 714.426L371.898 717.844L364.574 718.332L327.953 719.309L275.219 714.914L251.293 711.496L246.898 710.52L210.766 700.754V713.449L219.555 725.656L234.203 756.906L250.316 782.297L239.086 782.785L230.297 776.926L223.461 766.184L219.066 760.324L188.305 696.359L183.422 689.035L163.402 679.27L128.246 653.879L119.945 648.02L80.3945 609.934L69.1641 593.332L45.7266 562.57L28.6367 529.855L17.4062 501.535L6.66406 462.473L8.61719 459.055L5.19922 455.148L5.6875 447.824L2.26953 429.27L0.804688 347.727L5.19922 337.961L4.22266 333.566L9.10547 309.641L13.0117 289.621L27.1719 253L29.6133 243.234L38.4023 236.887L41.332 227.121L57.4453 204.172L56.4688 200.266L67.2109 186.594L78.9297 175.363L93.0898 159.738L133.617 124.582L159.496 109.445L169.75 105.539L194.652 92.3555L208.812 86.0078L230.297 79.6602L244.457 73.3125L249.34 73.8008L260.57 68.4297L303.539 60.6172L320.141 39.1328L320.629 35.7148L326 33.2734V29.3672L339.672 13.2539L352.367 0.0703125ZM247.875 149.484L255.688 133.859L263.988 124.094L263.5 119.699L256.664 122.629L249.34 121.164L232.25 139.23L224.926 138.742L216.137 146.555L193.188 158.273L165.844 183.664L159.008 188.059L158.031 193.43L131.176 224.191L130.688 228.586L122.387 233.957L120.434 239.816L106.762 265.207L104.32 267.648L100.414 279.855L86.2539 299.387L87.7188 303.781L81.3711 308.664L76 319.406L80.3945 323.801L70.6289 344.797L71.6055 353.586L64.7695 363.84L67.2109 368.234L60.8633 377.512L59.3984 398.996L55.4922 420.48L59.3984 436.105L55.4922 442.941L56.4688 458.566L67.6992 508.859L78.4414 535.715L83.8125 546.945V552.805L86.7422 555.246L108.715 591.867L133.617 621.652L164.867 651.926L171.215 655.344L174.145 650.949L171.215 639.719L169.75 619.211L165.355 606.027L162.426 577.707L159.984 573.312L158.52 541.574L158.031 514.23L158.52 497.629L161.938 474.191L159.496 445.383L162.426 440.5L166.332 405.832V399.973L170.727 379.465L177.562 348.215L186.84 302.316L189.281 294.504L194.652 281.32L199.047 263.254L202.465 257.883L207.348 248.117L206.859 240.793L217.602 212.961L226.879 194.895V191.477L238.109 168.039L237.621 165.109L247.875 149.484ZM519.359 490.305L497.387 493.234L492.504 509.348L473.949 564.035L470.531 581.125L463.695 598.703L461.742 611.398L458.324 613.84L459.301 618.723L446.605 644.113L434.398 682.199L467.602 669.992L480.297 662.668L493.48 655.832L499.828 630.441L502.27 611.887L515.453 544.504L525.707 492.258L519.359 490.305Z" fill="black"/>
</svg>
