<svg width="754" height="679" viewBox="0 0 754 679" fill="none" xmlns="http://www.w3.org/2000/svg">
<path d="M53.2891 1.58984H56.707L59.6367 11.3555L73.3086 21.1211L98.2109 25.0273L146.062 27.4688L155.828 25.5156L161.199 22.5859L164.617 23.0742L214.91 16.7266L238.836 11.8438L255.438 8.42578L282.293 0.125L298.406 9.40234L294.012 79.7148L294.5 105.594L292.547 140.75V160.281L287.664 238.406L289.617 240.848L384.344 224.246L387.762 225.711L398.992 219.852L404.363 219.363L531.316 208.133H564.52L568.426 194.461L570.379 174.441L572.332 172V143.68L574.773 140.75L582.098 91.9219L585.516 56.2773L587.957 51.8828L585.027 47.4883L549.871 41.6289L544.5 35.2812L539.617 34.793L526.922 23.0742L523.992 6.47266L531.316 7.9375L533.758 12.332H540.105L542.059 16.2383L551.336 17.7031L555.73 21.6094L590.398 27.957L633.855 33.3281L661.688 39.6758L714.91 40.6523L721.746 38.2109H737.371L738.348 40.1641L728.582 47.9766L671.941 51.3945L661.199 56.2773V64.5781L665.594 65.5547L664.129 74.832H669.012L667.547 94.3633L665.594 108.523L665.105 139.285L658.27 151.492L660.711 155.398L656.805 159.305L654.363 170.047L653.875 180.301L646.062 202.762L643.621 212.527L690.008 223.758L713.445 233.035L730.047 243.777L743.23 251.59L753.484 269.656L748.113 282.84L732.977 298.465L716.375 298.953L715.887 301.395L688.055 296.512L685.613 293.582L678.777 290.164L671.941 276.98L671.453 268.68L677.801 255.984L692.938 254.52L708.562 258.426L711.004 264.285L721.258 261.355L721.746 256.473L715.887 250.613L685.125 238.406L657.781 231.082L653.875 233.035L639.715 232.547L640.691 239.383L642.645 244.754L631.902 256.961L633.367 261.844L630.438 264.773L629.949 272.586L629.461 285.281L619.207 319.949L618.23 336.551L611.395 341.434L614.324 353.152L610.418 366.824H606.512L603.582 370.73L607.977 374.637L602.117 385.867L601.141 398.074L596.258 424.441L589.422 464.969L585.027 478.152L580.145 482.059L578.68 496.219L573.797 508.914L576.727 519.168L569.402 531.375L571.844 537.723L561.102 567.508L557.684 576.785L558.172 582.156L555.242 586.551L553.289 608.035L590.398 610.477L609.93 612.918L622.137 618.777L625.066 627.078L624.09 630.984L617.254 638.797L608.953 644.168L603.582 638.309L606.023 633.426L605.047 623.66L565.984 622.195L542.059 623.172L522.527 624.637L517.645 624.148L516.18 627.566L506.902 627.078L476.141 633.426L464.91 640.262V645.145L462.469 649.539L466.375 656.863L448.797 649.051L440.984 638.797L434.637 625.613L444.402 617.312L456.121 614.871L506.414 609.012L510.809 606.082V591.922L511.785 589.48L513.738 568.973L525.457 491.336L527.41 484.5L529.363 465.945L532.293 443.484L535.711 437.625L547.918 348.758L550.848 343.875V336.551L555.242 316.531L555.73 300.418L554.754 281.863L556.707 269.168L561.59 257.449L563.055 239.871L560.613 237.43L563.543 230.105L560.125 225.711L556.707 229.129L553.289 226.199H547.918L514.715 232.059L501.043 234.012L473.211 241.824H449.285L441.961 247.195L423.406 243.777L415.105 248.172L384.832 251.59L363.836 256.473L321.844 261.844L292.059 269.168L288.641 268.191L285.223 271.609L283.27 294.559L281.805 335.086V389.773L280.828 394.168L277.898 437.625L278.875 460.086L277.41 476.688L279.363 484.012L276.922 517.703L278.875 527.957L274.48 534.305L276.922 538.699L273.992 549.441L276.922 559.695L271.551 602.664L274.48 605.105H281.805L289.617 604.129L309.148 611.941L321.355 621.707L320.867 628.543L309.637 633.426H291.082L290.594 629.031L295.965 626.102L288.152 618.289L270.574 615.848L265.691 648.074L262.273 649.051L259.344 653.934L254.949 649.539L257.391 644.656L256.902 628.055L259.344 624.148L255.926 615.848H244.207L237.859 617.312L200.262 624.148L190.496 627.078L154.852 646.121L137.762 661.746L142.156 678.348L129.461 674.93L123.113 665.164L114.812 661.746L112.371 645.633L142.645 625.125L171.941 612.43L172.43 607.059L170.965 597.781L173.406 579.227L172.918 519.656V505.496L173.406 495.242L169.5 486.941L170.477 459.109L169.5 437.137L171.453 430.789L165.594 411.258L168.523 405.398L165.594 382.449L163.641 349.734L159.734 305.301L150.945 301.395L140.691 303.836L87.4688 305.301L56.707 302.859L41.082 301.395L24.9688 292.605L6.41406 272.098L0.554688 254.031V243.289L3.97266 232.059L11.7852 228.641L15.6914 221.805L36.1992 211.062L54.7539 210.574L73.7969 221.805L81.6094 253.543L75.75 255.008L62.0781 242.312L36.6875 251.59L28.875 260.867L27.4102 269.168L33.2695 275.516L53.7773 280.398L78.1914 280.887L158.27 269.656L161.688 258.914L156.316 224.246L159.246 221.316L153.875 193.484L157.293 184.695L155.34 172V161.746L151.434 120.73V100.711L148.504 88.5039L146.062 65.5547L144.598 44.0703L127.996 43.0938L121.648 46.0234L91.8633 48.4648L66.9609 36.7461L60.6133 30.8867L54.2656 17.7031L53.2891 1.58984ZM272.527 11.8438L235.906 20.6328L217.352 29.9102L216.375 35.2812L220.281 36.2578L220.77 40.6523L235.906 74.3438L233.465 78.25L233.953 96.8047L233.465 102.664L238.836 114.383L237.859 129.52L233.953 136.844L234.93 141.727L238.348 146.121V159.305L232 170.047L237.371 175.418L236.395 203.738V208.133L232 216.434L235.906 251.102L274.48 244.266L272.527 233.523L273.016 215.457L274.969 209.109L273.992 183.719L277.898 156.375L274.969 151.492L278.875 122.195L278.387 101.688L276.434 98.7578L276.922 76.7852L278.875 54.8125L275.945 52.3711L279.363 39.6758L278.387 37.2344L279.852 13.3086L277.898 11.3555L272.527 11.8438ZM252.02 273.562L238.836 279.91L232.977 291.629L231.023 306.766L234.441 308.23L232 315.555L233.953 319.461L234.441 337.039L233.953 367.312L229.07 371.219L232.977 374.637L232.488 386.355L229.559 424.441L230.535 428.836L227.605 432.254L230.535 437.137L227.117 442.996V458.133L226.141 467.41L222.723 500.613L220.77 531.375L217.84 567.996L218.816 574.832L213.445 607.059L240.789 603.152H257.879V598.758L260.809 595.828L258.855 587.039L262.273 556.766V525.027L262.762 508.426L264.227 483.035L265.203 452.273L267.156 437.625L265.203 419.559L267.645 403.934L267.156 365.359L269.109 338.992L269.598 315.555L270.086 305.789L272.039 282.352L272.527 273.074L252.02 273.562Z" fill="black"/>
</svg>
