<svg width="343" height="713" viewBox="0 0 343 713" fill="none" xmlns="http://www.w3.org/2000/svg">
<path d="M251.551 2.08594L261.805 1.10938L266.688 3.55078L268.641 9.89844V25.0352L292.566 23.5703L313.074 17.2227L322.352 8.43359L322.84 0.621094L332.605 7.45703L342.859 27.9648L338.465 30.4062L305.75 35.2891L266.199 41.6367L263.27 52.3789L258.387 80.6992L256.922 95.8359L251.062 134.41L249.109 142.223L245.203 163.219L243.25 170.055L242.273 188.121L236.414 212.535L234.949 230.602L230.555 246.715L227.137 276.012L223.719 278.941L221.277 308.238L217.371 318.492L219.324 322.398L215.906 327.281L217.371 340.465L212.977 349.742L213.953 354.137L210.535 375.133L207.605 379.527L209.559 383.922L204.188 409.312L201.746 411.754L202.723 418.59L200.77 445.934L191.004 487.926L188.074 513.805L183.68 524.059L184.168 533.824L174.891 597.789L170.008 618.785L173.426 621.715L196.375 621.227L208.094 624.156L215.906 622.691L253.016 632.457L261.805 640.758L265.711 651.5L262.781 657.848L237.879 665.172L232.02 662.242L227.625 665.172L218.836 666.148L216.883 664.195L210.535 663.707L222.254 655.895L228.113 649.059L238.367 646.617L236.414 639.293L212.488 640.758L203.699 638.805L170.496 637.828L162.684 650.523L158.777 676.891L155.359 682.262L155.848 689.098L152.918 697.887L148.523 712.535L143.152 693.492L146.57 674.938L146.082 667.613L149.988 649.059L148.523 640.758L122.645 644.176L120.203 646.617L92.8594 652.965L59.168 661.754L50.8672 669.566H43.0547L30.3594 679.82L34.2656 693.004L41.5898 698.863L42.0781 701.305H36.707L28.4062 698.375L15.2227 688.121L5.45703 666.637L0.0859375 655.406L0.574219 646.129L24.9883 637.34L45.4961 632.945L63.5625 630.016L84.0703 625.621L81.1406 582.164L85.5352 529.918L86.5117 505.504L89.4414 474.254L94.3242 469.859L90.9062 454.723L92.8594 423.473L94.3242 396.617L92.8594 375.621L96.7656 369.273L95.3008 360.484L101.16 346.324L100.184 330.699L103.602 275.035L104.09 265.27L107.996 241.344V232.555L114.832 167.613L117.273 135.387L119.715 132.457L123.133 91.4414L119.715 87.0469L122.156 79.2344L122.645 47.9844L93.8359 47.4961L88.9531 48.9609L82.6055 48.4727L63.0742 47.0078L54.2852 37.2422L50.8672 25.0352L51.8438 2.08594L76.2578 20.1523L98.7188 26.9883L104.578 26.0117L109.461 29.918L118.738 30.4062L151.453 32.3594L158.777 34.3125L168.055 31.8711L170.496 34.3125L174.891 32.3594H212.977L220.301 30.4062L237.391 30.8945L247.156 28.4531L252.039 13.8047L251.551 2.08594ZM230.555 39.1953L218.836 42.125L211.023 41.1484L207.605 43.5898L184.168 46.0312L173.426 48.9609L152.918 48.4727L153.406 51.4023H158.777L165.125 56.2852L180.262 59.7031L181.238 67.0273L192.469 80.6992V106.578L194.422 110.973L192.469 113.902L194.91 122.203L188.074 132.945L187.098 149.059L191.98 160.777L189.539 169.566L188.562 183.238L188.074 191.539L183.191 193.004L186.121 201.305L183.191 218.395L179.285 221.812L180.262 232.555L177.82 267.711L180.262 275.523L169.031 309.703L168.055 334.117L163.66 366.832L156.336 389.293L151.941 403.941L154.871 407.848L152.918 434.703L149.988 438.609L147.547 451.305L142.664 475.23L137.781 493.785L139.246 502.574L135.828 510.875L125.086 552.379L126.551 555.797L122.156 564.098L121.18 574.352L112.879 593.395L103.113 623.18L105.066 624.645L135.34 621.715L136.316 619.762L139.734 622.203L148.035 621.227L151.453 623.18L158.289 599.254L160.73 580.211L163.66 574.352L169.031 547.008V539.195L170.496 526.012L173.914 501.598L177.332 488.902L176.355 477.184L180.75 466.93L181.238 443.492L185.145 438.609L183.191 434.703L187.098 429.332L184.656 421.52L185.633 412.73L190.027 384.898L188.562 382.457L197.352 353.16L195.398 347.301L200.281 335.094L203.699 308.727L207.605 290.172L207.117 273.57L210.047 264.781L213.953 228.648L215.418 225.719L218.348 201.305L220.789 198.863L229.09 153.453L233.484 112.438L240.32 73.8633L245.203 45.0547L240.809 40.6602L230.555 39.1953Z" fill="black"/>
</svg>
