<svg width="569" height="732" viewBox="0 0 569 732" fill="none" xmlns="http://www.w3.org/2000/svg">
<path d="M551.27 0.6875L566.895 6.05859L568.848 8.5L563.965 37.7969L559.082 66.1172V73.4414L555.664 78.3242L557.129 90.5312L552.734 102.25L550.781 121.293L541.016 168.656L541.992 174.027L531.738 215.531L521.973 251.176L518.555 261.918L511.719 292.191L507.324 299.516L509.277 306.352L503.906 318.559V329.789L500 333.695L500.977 340.531L496.094 352.25L483.398 385.453L472.656 421.098L464.355 438.188L459.961 442.094L458.984 451.371L454.59 453.812L456.055 462.602L452.637 466.02V470.902L441.406 492.875L437.5 503.617L432.617 511.43L427.246 513.383L428.223 518.266L424.316 520.219L421.875 529.008L414.551 536.82L414.062 542.191L406.25 550.004L405.273 552.934L396.973 562.211L395.02 567.582L390.137 573.93L367.676 599.32L332.031 630.57L317.383 644.73L269.043 674.027L244.141 691.117L239.746 691.605L236.328 696.488L223.633 702.836L205.078 714.066L191.895 721.391L171.875 723.344L142.09 728.715L120.605 731.645L93.75 729.203L65.918 718.461L47.8516 708.207L25.3906 691.605L14.6484 675.492L8.78906 659.379L2.92969 647.66L0 629.594L3.90625 620.316L3.41797 606.645L10.2539 572.953L19.043 564.652L31.25 534.867L52.7344 512.895L93.2617 482.621L119.141 470.902L149.902 463.09L178.223 465.043L199.219 473.832L200.195 476.273L218.75 491.898L224.609 520.707L216.309 527.055L212.891 531.449L192.871 538.773H182.129L169.434 524.125L167.48 516.312L166.504 506.547L182.129 488.48L178.711 483.598L160.156 479.691L129.395 486.527L119.141 489.945L101.074 502.152L77.6367 517.777L72.7539 519.242L68.8477 525.59L53.2227 542.68L38.5742 567.094L35.6445 576.371L27.832 588.09L20.9961 614.457L20.0195 639.359L29.2969 671.586L46.875 695.023L62.9883 701.859L83.0078 709.672L102.539 714.066L123.047 714.555L155.273 705.766L162.109 703.324L182.617 693.559L211.914 675.492L231.934 657.426L233.887 655.473L251.953 636.43L253.906 634.965L255.859 630.082L233.398 626.664L228.516 622.27L218.262 620.805L213.867 617.387V614.457L216.309 612.992L241.211 618.363L259.766 618.852L266.602 617.875L285.645 591.02L296.875 569.047L312.988 551.957L331.543 511.918L333.496 489.945L342.773 476.762L347.168 457.719L352.051 424.516L363.281 404.984L365.234 382.523L374.512 346.879L377.441 336.137L386.719 278.52L393.555 240.922L400.391 227.25L401.855 217.973L399.414 212.602L415.527 111.039L426.758 57.8164L427.734 50.9805L426.27 45.6094L402.344 49.0273L374.023 56.3516L370.605 54.8867L342.773 60.2578L321.777 61.2344L291.992 71.9766L284.668 71L262.207 84.6719L253.418 104.691L256.348 117.875L253.418 125.199L260.254 124.223L263.672 128.617L260.742 131.059L257.812 130.57L241.699 118.852L230.469 89.5547L231.445 85.6484L224.609 68.5586L226.562 66.1172L224.121 63.1875L225.586 52.9336L230.957 53.9102L239.746 46.0977L278.32 44.1445L286.133 47.0742L286.621 41.7031H303.711L316.406 40.2383L354.98 36.332L374.512 34.8672L378.418 36.8203L379.883 33.4023L391.113 33.8906L414.062 29.0078L416.504 27.543L420.898 29.4961L423.828 27.0547L426.758 24.6133H433.105L432.617 14.8477L442.871 16.3125H451.66L464.844 23.1484L492.188 20.707L517.578 14.8477L522.461 18.2656L521.973 21.6836L481.934 32.4258L488.77 50.0039L487.793 56.3516L492.188 60.2578L488.77 68.0703L493.164 75.3945L488.281 80.2773L487.305 96.3906L482.422 98.832L484.375 102.738L482.422 131.547L478.027 133.012L474.609 157.914V170.609L466.309 179.887L469.238 183.793L464.355 197.953L464.844 217.973L456.055 242.387L455.566 251.176L452.637 281.938L447.754 283.891L449.219 291.215L445.801 293.168L448.242 297.074L440.918 297.562L442.383 311.723L433.105 349.809L429.199 356.156L430.664 360.551L426.27 365.922L428.223 375.688L422.852 386.43L413.086 416.215L410.645 425.492L412.598 429.398L408.203 437.211L408.691 444.047L397.949 469.438L400.879 471.391L398.926 479.691L395.02 481.645L391.602 493.852L385.742 501.176L379.395 523.637L371.094 535.844L367.676 548.051L364.258 551.957L362.305 562.699L354.492 571V578.812L344.727 588.578L334.473 609.086L327.148 620.805L334.961 614.945L348.145 603.227L353.516 596.879L368.652 579.301L369.629 575.395L378.418 569.047L390.137 551.469L396.484 534.379L409.668 517.777L414.551 504.594L419.922 503.129L417.969 498.734L437.988 456.742L440.43 447.953L461.914 389.848L464.844 378.617L468.262 377.152L468.75 373.246L471.191 372.758L476.074 354.691L475.098 351.273L479.492 339.555L484.863 320.023L490.723 309.77L491.699 297.562L503.418 244.828L508.301 237.992L516.113 196L519.043 193.559L521.973 166.703L530.273 126.664L536.133 87.1133L539.551 80.2773L537.598 74.418L542.969 52.4453L543.457 16.3125L547.363 3.12891L551.27 0.6875Z" fill="black"/>
</svg>
