<svg width="684" height="695" viewBox="0 0 684 695" fill="none" xmlns="http://www.w3.org/2000/svg">
<path d="M323.445 1.19531L328.328 0.21875L334.188 5.10156L339.559 12.4258L338.582 15.3555L331.746 39.7695L327.84 43.6758L329.305 47.0938L318.562 95.9219L313.191 113.988L310.75 116.43L313.191 120.824L307.82 125.707L310.75 128.637L309.285 130.102L299.52 164.77L294.637 183.812L288.289 199.438L289.266 203.344L286.336 209.691L279.012 245.336L273.152 254.125L269.246 266.82L266.316 282.445L275.105 283.422L276.082 279.027H281.453L308.309 272.191L328.816 256.566L341.023 254.125L371.785 237.035L377.645 232.641L383.016 231.176L422.078 215.062L427.938 206.273L446.98 198.949L450.398 194.066L460.652 188.207L482.137 175.023L486.043 174.047L527.059 145.727L538.777 138.402L548.543 132.055L565.633 121.801L586.629 106.176L596.395 97.875L601.766 96.4102L606.16 87.6211L605.672 79.8086L602.742 74.9258L594.441 71.5078L577.352 79.8086V86.1562L573.934 85.668L571.492 87.6211L573.934 101.781H565.633L558.797 93.9688L553.914 93.4805L547.078 80.7852L544.637 57.8359L565.633 44.1641L592 41.7227L615.926 51.4883L624.227 57.8359L631.062 73.4609L629.109 89.5742L616.414 108.617L589.559 130.102L582.234 133.52L573.934 142.797L566.609 144.262L522.664 174.047L517.293 173.559L513.875 178.441L486.531 193.09L482.137 196.996L448.934 214.574L447.469 217.016L416.219 232.152L395.223 243.871L393.27 245.336L353.719 266.332L338.582 275.121L329.305 278.539L327.352 280.98L343.465 283.422L349.812 291.723L356.648 293.188L380.086 318.578L385.945 327.855H389.852L395.223 341.039L403.035 346.41V352.27L406.941 354.223L409.383 360.57L420.125 371.312L421.102 375.219L438.191 404.027L446.004 421.605L455.281 426.977L457.234 432.836L463.094 441.625L475.301 459.691L493.855 488.988L510.457 509.496L518.758 513.402L523.641 524.633L527.059 528.051L536.336 541.234L539.266 542.211L553.426 557.348L557.82 564.184L564.168 569.066V572.973L569.051 574.438L577.84 585.668L593.465 593.969L619.344 612.523L646.199 616.918L652.059 617.406L672.566 609.594L680.867 596.41H683.309L676.473 613.012L666.219 624.73L631.062 638.402L595.418 640.355L555.379 629.613L552.449 625.707L544.148 624.242L527.059 613.5L496.297 591.527L482.625 578.832L465.535 560.766L449.91 537.816L428.914 514.867L426.473 507.055L416.219 492.895L412.801 484.594L406.453 480.688L386.434 446.508L372.762 430.883L336.141 379.125L330.77 369.848L309.773 342.992L287.312 322.973L278.523 317.602L275.594 313.695L268.27 311.254L259.969 312.719L258.016 317.113L249.227 342.992L248.738 348.363L246.297 351.293L244.832 360.082L242.879 362.035L237.508 383.031L231.648 398.168L228.23 415.258L225.301 430.395L217.488 451.879L217.977 456.762L213.094 466.527L209.676 488.012L194.051 547.094L188.68 562.23V571.508L185.262 579.809L187.215 581.762L195.516 578.344L214.07 578.832L216.023 575.414L247.273 576.391L250.691 573.949L272.664 583.227L281.941 592.016L279.012 607.152L264.852 613.012L258.016 613.5L255.574 614.965L246.785 611.547L249.715 608.617H252.645L262.898 598.363L259.969 593.48L255.086 592.016L224.812 591.039L184.285 598.852L178.426 603.246L167.195 650.121L163.289 652.074L152.059 648.656V641.82L165.242 608.129L166.707 603.246L151.082 607.641L148.152 610.57L136.922 613.5L129.598 619.359L101.277 629.125L95.418 634.008L85.6523 634.496L81.2578 640.844L70.5156 645.238L67.0977 646.215L64.6562 651.586L55.8672 656.957L52.4492 666.234V678.441L64.168 692.602L62.2148 694.555L49.5195 690.648L34.3828 679.906L21.6875 659.887L17.293 637.914L22.6641 630.59L63.6797 616.918L72.957 610.082L82.2344 580.785V566.625L88.0938 553.441L98.3477 494.359L107.625 448.461L113.484 429.418L121.297 393.773V388.891L128.133 359.105L133.992 314.184L140.34 288.305L151.082 224.34L154.012 212.133L158.406 177.953L164.266 165.746L171.59 109.105L169.148 95.4336L170.125 71.9961L174.031 46.6055L174.52 39.7695L184.285 34.3984L167.195 36.8398L150.105 41.2344L144.246 38.793L139.852 42.2109L117.879 46.6055L73.4453 61.7422L67.5859 66.1367L53.9141 73.4609L43.6602 83.2266L47.0781 86.6445L43.6602 93.4805L45.125 103.246L49.5195 108.129L50.4961 113.012L61.2383 119.359L52.4492 126.684L45.6133 117.406L41.707 118.871L34.8711 114.477L18.2695 100.805L0.203125 74.4375L2.15625 61.2539L20.2227 48.5586L27.5469 50.0234L32.4297 45.6289L52.4492 39.7695L54.8906 40.7461L96.8828 32.4453L103.719 29.5156L167.195 20.2383L170.613 21.7031L207.723 15.3555L230.184 17.3086L236.043 13.4023L269.734 12.4258L297.078 14.3789L273.152 17.7969L250.691 25.1211L246.297 24.1445L239.461 27.5625H226.766L223.836 30.4922L210.652 30.9805L203.816 34.3984L215.535 39.7695L229.695 50.0234L237.996 55.3945L247.273 71.0195L247.762 74.9258L244.344 85.1797L240.438 86.6445L243.367 94.457L240.438 97.3867L242.879 112.523L239.461 124.73L236.043 136.938L235.066 163.793L231.16 168.188L231.648 192.113H227.742L222.371 218.969L213.582 251.195L206.746 279.027L198.934 309.789L196.492 328.832L193.074 344.457L196.492 348.363L194.051 357.152L189.656 360.082L185.75 370.336L184.285 391.82L175.008 413.305L176.961 416.234L175.008 422.582L165.242 451.391L166.707 453.832L162.801 463.109L158.406 472.387L159.871 480.199L157.43 481.176L152.059 500.219L143.758 512.914L148.641 518.285L137.898 537.816L126.18 549.535L123.738 551.977V557.348L120.32 561.254L123.25 567.113L104.207 596.41L97.8594 604.711L161.336 586.156L165.73 585.668L168.66 581.273L171.59 579.809L176.961 562.23L177.449 551.488L184.285 542.699L182.332 538.793L187.215 521.215L193.074 499.73L206.746 437.23L208.211 431.859L218.953 396.703L217.488 393.285L233.113 340.551L239.461 313.207L231.16 308.812V303.441L246.297 290.746L249.715 279.027L252.645 275.609L251.668 270.238L269.734 213.109L277.547 181.859L280.477 171.605L283.406 168.676L281.941 165.258L306.844 72.4844L316.121 33.9102L317.586 26.0977L323.445 1.19531Z" fill="black"/>
</svg>
