<svg width="623" height="657" viewBox="0 0 623 657" fill="none" xmlns="http://www.w3.org/2000/svg">
<path d="M458.496 0.332031L473.633 4.72656L474.609 7.65625L470.703 28.6523L473.633 31.0938L487.305 30.1172L515.137 22.793L526.367 16.4453L530.762 6.67969L534.668 10.5859L527.832 30.6055L512.207 39.3945L489.258 42.8125L472.168 43.7891L467.773 47.207L457.52 83.8281L439.941 150.234L434.082 163.906L434.57 174.16L431.152 178.555L428.711 185.879L424.805 188.809L425.293 194.18L421.387 196.133L415.527 222.012L406.738 243.008L399.414 265.957L392.09 284.512L388.672 288.418L377.93 319.18L375 321.621L370.117 341.152L360.352 361.172L356.445 371.426L345.215 395.352L332.031 426.602L326.172 438.809L323.73 441.738L313.477 466.152L304.688 476.895V482.266L291.016 504.727L286.621 507.656L284.18 517.91L267.09 546.23L264.16 548.184L283.691 558.926L372.07 596.035L408.203 606.289L459.473 612.637L484.375 610.195L500.488 606.777L527.344 597.012L553.223 580.41L564.941 568.203L576.172 552.578L590.82 527.188L586.426 520.84L590.332 517.422L593.75 493.984L590.332 484.707L586.914 465.664L579.102 454.922L560.059 437.832L552.734 434.902L527.344 425.625L500.488 424.16L471.68 437.344L464.355 445.645L462.402 451.504L474.121 452.48L483.398 456.387L490.723 471.523L489.258 480.312L473.145 493.008L461.914 494.961L446.777 489.59L438.965 475.918L436.523 461.27L443.359 441.738L454.59 430.02L472.168 416.348L508.301 409.023L529.785 413.906L555.176 417.324L560.059 420.254L594.727 445.645L611.328 473.965L620.605 498.379L622.07 527.676L618.164 547.207L620.117 553.555L611.328 573.574L612.305 576.992L607.91 584.805L596.191 609.219L582.031 619.961L569.824 630.703L544.434 642.422L541.016 644.863L531.25 646.328L527.344 651.699L507.324 650.234L488.77 655.117L483.887 654.141L479.98 656.094L451.172 651.699L426.27 648.77L416.016 644.375L405.762 639.492L372.559 628.75L337.891 610.195L304.688 596.523L294.922 588.711L291.504 589.688L280.762 583.828L274.902 577.48H269.043L248.047 567.227L227.051 591.152L216.309 597.988L202.637 610.195L187.5 618.984L159.18 627.773L152.344 622.891L183.594 611.172L187.988 605.312L194.336 604.336L211.914 585.293L236.816 559.902L198.242 546.719L196.289 547.207L181.152 563.32L136.23 600.918L121.582 608.242L120.117 611.172L116.699 611.66L97.6562 621.426L83.0078 622.402L75.6836 628.262H41.0156L20.9961 624.355L10.2539 615.566L0 592.129L2.92969 577.969L17.0898 562.344L41.0156 543.301L74.2188 529.141L112.793 520.352L157.227 522.305L175.781 525.723L189.453 503.262L206.543 470.547L209.473 459.805L218.262 441.738L245.117 369.473L266.113 302.09L271.973 280.605L273.926 266.445L281.738 241.543L287.598 225.918L289.062 204.434L292.48 189.297L294.922 184.902L296.387 168.789L302.246 146.816L313.965 87.7344L316.895 68.2031L318.359 55.5078L284.668 58.9258L267.578 58.4375L234.863 60.8789L211.914 58.4375H202.148L189.941 50.1367L187.5 45.7422L180.664 24.2578L179.688 12.0508L186.035 13.5156L191.406 23.2812L200.195 30.1172L210.449 33.5352L244.141 39.3945L249.512 35.9766L261.719 39.3945L294.434 38.9062L300.781 40.3711L318.359 37.9297L319.336 36.4648L315.918 29.6289H319.824L316.895 19.8633L326.172 19.375L348.145 31.582L352.051 36.9531L391.113 39.3945L396.973 40.8594L421.387 35.9766H446.289L449.707 35.4883L453.125 16.4453L457.031 11.5625L455.566 7.16797L458.984 3.26172L458.496 0.332031ZM375 52.0898L370.605 55.0195L375 58.4375L380.371 64.2969L379.395 68.6914L385.742 76.5039L383.789 89.6875L389.16 95.5469L383.301 128.75L381.348 131.68L379.883 139.98L375.977 142.422L378.418 155.605L371.582 159.023V182.461L365.723 194.18L358.398 210.781L354.98 226.895L349.609 243.984L343.75 255.703L335.938 276.699L331.055 286.953L327.148 300.625L320.312 308.926L321.289 318.203L316.895 322.109L317.383 327.48L315.43 329.922L307.617 355.312L296.875 375.82L297.852 379.238L290.527 397.793L285.645 399.258L274.902 422.695L270.996 437.344L252.441 464.199L243.164 481.777L230.469 503.262L208.984 529.141L250 544.766L264.16 517.422L273.438 507.168L279.785 488.125L283.203 486.66L286.133 479.824L290.527 475.43L298.828 453.945L307.617 439.785L309.082 432.949L312.5 430.508L315.43 419.277L333.984 383.633L337.402 369.961L342.285 357.754L345.215 353.848L345.703 348.965L352.539 339.688L360.352 315.762L377.93 273.281L386.719 255.215L389.648 243.496L399.414 221.035L403.809 200.039L409.18 194.18L408.203 189.785L413.574 177.09L426.27 134.609L440.918 76.5039L445.312 51.6016L433.594 49.6484L381.836 52.5781L379.395 53.5547L375 52.0898ZM129.395 533.535L106.934 535.977L63.9648 549.16L36.6211 568.691L25.3906 581.875L19.5312 595.547L32.7148 611.172L37.5977 609.219L48.3398 613.125L74.2188 610.684L103.027 601.406L126.465 586.27L147.461 566.25L167.48 537.441L165.527 536.953L129.395 533.535Z" fill="black"/>
</svg>
