<svg width="929" height="691" viewBox="0 0 929 691" fill="none" xmlns="http://www.w3.org/2000/svg">
<path d="M505.371 5.63672L507.812 11.9844L513.184 14.9141L509.766 18.332L517.09 22.7266L518.066 34.4453L523.926 40.3047L521.484 46.1641L530.273 81.8086L541.504 111.105L548.34 134.055L550.293 136.984L555.176 171.164L557.617 179.465L562.5 187.277L560.059 190.695L562.012 199.973L569.824 222.434L571.777 227.316L578.613 217.551L601.074 190.695L615.723 173.605L617.676 173.117L648.438 138.938L704.102 91.5742L731.934 71.0664L773.926 41.2812L785.645 29.5625L804.199 11.0078L818.359 7.58984L846.68 19.7969V22.7266L857.422 27.1211L864.746 34.4453L859.863 37.8633L860.84 40.793L849.121 57.3945L837.402 84.25L829.102 103.781L828.125 111.594L824.707 115.5L814.453 145.285L807.129 158.957L804.199 172.629L802.246 173.605V185.812L797.363 196.555L791.504 217.551L787.109 220.48L788.574 225.852L783.203 236.594L776.855 255.148L771.973 271.75L765.137 293.234L766.113 298.117L764.16 301.535L759.766 336.691L752.93 342.551L754.883 350.852L750.977 358.664L750 384.055L742.676 400.168L743.652 402.609L739.746 407.004L743.652 415.305L736.328 432.883L737.793 440.207L735.352 441.672L733.398 460.715L736.328 464.133L729.98 484.152L728.516 490.988L732.422 504.66L730.469 511.984L724.121 536.887L718.75 590.109L720.215 600.363L760.254 596.457L763.672 593.527L768.555 594.992L773.926 589.133L774.902 583.762L775.391 559.836L780.273 522.727L782.227 497.336L784.668 495.383L789.062 460.715L790.039 456.809L795.898 407.004L817.383 307.395L814.941 299.582L817.383 297.141L816.406 292.746L819.336 290.305L829.59 244.406L833.496 235.129L834.473 226.828L836.914 223.898L842.285 196.555L847.168 191.672L851.074 166.77L853.027 164.328L852.051 161.887L861.328 134.055L863.281 133.566L865.234 120.383L872.559 107.199L871.094 99.875L877.93 88.1562L875.488 84.25L877.93 81.3203L890.137 47.1406L898.438 26.1445L901.855 23.7031L902.344 18.8203L912.109 0.753906L919.922 3.68359L928.711 13.4492L892.578 103.781L880.371 130.637L878.418 143.332L845.703 261.984L839.355 287.863L836.914 297.141L826.172 357.688L821.777 379.66L816.406 408.957L813.965 421.652L807.617 465.598L807.129 473.898L804.199 489.523L801.27 492.453L803.223 495.383L799.316 507.59V516.379L799.805 522.727L797.852 526.633L799.805 532.98L793.945 552.023L793.457 575.461L793.945 583.762L791.992 587.668L793.457 593.527L837.402 592.062L854.98 593.039L861.328 595.48L881.348 605.734L885.254 613.059L884.277 620.871L876.465 628.684L862.793 630.148L849.121 621.848L858.887 610.617H844.727L829.59 607.199L827.148 609.641L821.777 607.688L795.41 612.082L789.062 616.477L790.527 619.406L785.645 633.566L788.574 637.961L784.668 644.797L776.367 647.727L773.926 645.773L774.414 616.965L754.883 619.406L740.723 621.848L729.004 628.195L712.891 630.148L709.473 633.566L676.758 649.191L669.434 656.027L668.457 660.91L663.574 661.887L661.133 674.094L669.922 687.766L666.016 690.695L641.113 670.188L638.184 654.074L646.973 637.473L656.738 629.172L678.223 615.5L684.57 614.523L681.152 570.09L678.223 515.402L677.246 475.852L679.199 471.457L680.176 459.738L683.594 436.301L682.129 428.977L686.523 399.68L691.406 370.383L694.336 350.363L699.707 316.184L708.008 288.84L717.285 243.918L720.215 239.035L721.68 230.734L727.051 213.645L731.934 198.508L729.98 195.578L733.887 181.418L759.766 101.34L771.484 68.625L773.438 65.6953L747.559 84.7383L728.027 96.9453L718.75 102.805L705.078 116.965L697.754 125.266L689.453 127.219L680.664 135.031L673.828 146.262H669.434L663.574 155.539L640.137 172.629L641.113 177.023L593.262 230.734L586.426 241.477L583.496 242.453L576.172 248.801L579.59 261.496L575.195 273.703L577.148 289.816L579.102 313.742L581.055 336.203L585.938 353.781L586.914 356.223L589.355 374.777L588.867 383.078L585.449 398.215L583.008 425.07L579.102 450.949L574.707 461.691L576.172 467.062L567.871 488.059L561.523 511.496L545.898 549.094L534.18 563.742L525.879 577.902L520.508 585.715L514.16 595.48L490.723 619.895L477.539 630.637L450.684 642.355H437.988H427.246L416.016 638.449L398.926 621.848L387.207 601.34L383.789 583.762L384.766 573.996L387.695 546.652L391.602 528.586L402.344 496.359L411.133 471.457L418.945 447.531L427.246 428.488L475.586 344.504L509.277 297.629L513.184 291.77L514.16 287.375L511.719 262.961L503.418 223.41L496.582 194.113L481.445 144.309L475.586 128.684L474.121 118.918L466.797 98.4102L461.914 87.1797L451.172 44.2109L445.801 36.3984H442.871L401.367 46.6523L413.086 54.9531L436.035 75.9492L441.406 97.4336L436.523 102.805L437.988 117.941L434.57 125.266L432.129 148.703L426.27 172.141L422.363 177.023L421.387 190.207L416.992 209.738L410.645 220.969V228.293L409.18 232.199L407.715 242.453L392.578 275.168L384.277 303.977L378.418 319.113L362.305 345.48V349.387L360.352 351.828L358.887 363.547L344.727 389.914L328.613 416.77L326.172 425.07L317.383 439.23L297.852 468.039L298.828 470.969L293.945 478.293L284.668 483.176V488.059L270.02 508.078L249.512 534.445L245.605 538.352V541.281L230.469 555.441L217.773 566.184L208.984 575.949L192.383 588.156L170.41 600.852L150.391 614.523L124.023 626.242L87.8906 634.543L63.9648 632.102L33.6914 615.5L27.3438 607.688L15.1367 599.387L13.6719 594.504L4.88281 583.762L0.976562 570.578L2.44141 563.742L0 559.836V549.094L17.0898 575.461L30.7617 587.18L44.4336 595.48L69.3359 601.828H83.9844L114.746 595.48L140.625 580.832L147.461 575.461L175.293 556.906L194.336 541.77L225.586 501.73L234.375 490.988L253.906 460.715L279.785 421.164L290.039 398.703L304.688 365.012L317.383 340.598L320.312 329.367L326.172 318.137L348.633 256.125L348.145 253.195L356.445 229.27L359.863 217.551L372.07 170.676L385.254 106.223L386.719 98.8984L392.578 58.8594V49.0938L373.047 53.9766L323.242 70.5781L290.527 85.7148L286.133 86.6914L269.043 97.4336L261.719 100.852L253.906 108.176L245.605 112.082L234.863 126.73L235.84 139.914L239.746 148.703L244.141 152.609L245.117 158.469L240.723 160.422L223.145 142.355L201.172 115.988L195.312 104.27L192.871 95.4805L202.637 86.2031L228.516 77.9023L330.078 46.1641L446.289 19.7969L458.496 20.2852L497.07 6.61328L505.371 5.63672ZM517.578 322.531L511.719 330.344L508.301 339.133L501.953 344.016L500.488 351.34L482.422 376.73L479.98 381.613L480.957 384.055L471.68 400.656L462.891 418.234L458.496 419.699L457.52 427.512L439.453 464.133L432.129 484.152L427.246 488.059L427.734 494.406L423.34 503.684L422.852 512.473L417.969 517.844L418.457 522.727L413.574 537.863L414.062 541.77L411.133 547.141L413.086 553.977L408.203 561.789L411.621 567.16L409.18 577.902L412.598 602.316L416.992 609.641L430.176 621.359L434.082 617.941L445.801 618.43L450.195 613.547L454.59 612.57L463.867 600.363L471.191 597.434L470.703 593.039L476.562 589.621V585.715L488.77 566.184L506.348 527.609L514.648 492.941L521.973 460.227L522.461 452.902L523.926 444.113L525.879 381.613L522.461 332.297L517.578 322.531Z" fill="black"/>
</svg>
