<svg width="811" height="691" viewBox="0 0 811 691" fill="none" xmlns="http://www.w3.org/2000/svg">
<path d="M776.367 0.894531L788.086 2.35938L800.781 14.0781L810.547 30.1914L799.316 56.0703L789.551 66.8125L770.02 72.1836L762.695 68.7656L756.836 59L757.324 55.0938L749.023 47.2812L733.398 55.582L711.426 90.25L708.984 95.6211L702.637 114.664L698.242 119.547V121.988L686.035 150.309L679.199 161.539L676.758 169.84V174.234L660.645 211.344L649.902 243.57L645.508 257.242L621.094 334.391L617.676 338.297L619.141 341.227L605.957 380.777L603.516 389.078L596.191 419.84L593.262 421.793L590.332 447.184L626.465 548.746L621.094 553.629L608.887 545.816V540.934L583.008 481.852L578.125 496.988L572.754 516.52L571.289 547.77L568.848 552.164V568.277L565.43 572.672L567.383 577.066L570.312 616.617L570.801 622.477L576.66 639.566L566.895 637.613L570.801 642.496L554.199 638.59L551.27 642.496L513.672 638.59L508.301 623.941L508.789 621.012L503.906 615.641L500.488 597.086L497.07 595.133L493.652 581.949L467.285 518.473L468.262 514.566L462.891 505.289L463.379 502.848L447.266 466.715L442.383 447.672L430.176 419.84L407.715 365.152L403.32 354.41L393.066 328.043L387.207 317.789L375 283.121L370.117 272.867L364.746 268.473L358.887 248.941L355.469 248.453L346.68 221.109L339.844 209.879L338.867 203.043L331.543 191.812V187.418L318.848 166.422H314.453L312.012 178.141L310.059 213.785L307.617 217.691L305.176 231.852L301.758 265.543L296.387 291.91L294.922 307.047L291.504 309L294.922 314.371L289.551 323.648L287.109 345.621L282.227 363.688L279.297 371.988L271.484 398.355L269.531 406.656L260.254 434.488L260.742 440.348L256.836 445.23L249.023 469.645L246.094 472.574L244.629 483.805L236.328 494.547L236.816 498.941L226.562 522.867H223.145L214.844 538.492L216.309 542.398L208.984 553.629L192.871 586.344L185.547 592.691L177.246 606.363L173.828 607.828L167.969 619.059L160.645 624.918L156.25 625.895L151.367 637.125L132.324 656.168L127.93 654.703L124.512 657.633L114.746 666.91L109.863 674.234L101.074 673.746L85.4492 684.488L82.0312 684L62.0117 690.836L44.4336 687.418L35.6445 687.906L16.6016 675.699L2.92969 654.703V642.008L0 637.613L3.41797 612.223L6.34766 610.27L8.30078 599.039L20.5078 579.996L25.3906 577.066L33.2031 563.883L44.9219 556.559L55.1758 547.281L68.8477 540.934H72.7539L76.6602 536.539L97.6562 549.234L107.91 561.441V566.812L112.305 575.113L92.7734 595.621L89.8438 599.527L72.7539 603.434L63.4766 598.551L58.1055 576.578L52.2461 578.531L43.9453 580.484L28.3203 610.758L23.4375 616.129L20.5078 646.891L22.9492 657.145L31.7383 664.957L51.2695 669.84L65.918 667.398L80.0781 661.051L94.7266 651.773L108.887 643.473L130.859 623.453L132.812 618.082L143.066 611.246L154.785 595.621L177.246 566.812L188.965 543.863L200.684 518.473L207.52 503.336L213.867 486.246L231.934 443.766L236.328 421.793L243.164 402.262L247.07 382.242L254.883 353.434L259.277 333.902L261.23 324.137L266.113 298.258V291.91L278.32 201.578L282.227 119.547L281.25 99.0391L269.043 80.9727L253.906 79.0195L250 81.9492L227.539 90.7383L217.285 95.1328L204.59 99.0391L180.176 110.27L176.27 112.711L171.875 111.246L145.02 127.359L139.648 139.566L135.742 141.52L135.254 152.75L149.902 168.863L146.973 171.793L127.93 163.98L116.211 152.262L82.5195 118.57L89.3555 108.805L97.6562 102.457L119.141 96.5977L140.137 92.2031L155.273 87.3203L193.848 77.5547L205.566 73.1602L223.633 70.2305L252.441 66.3242L262.207 60.4648L295.898 56.5586L316.406 49.7227L325.195 52.1641L330.078 47.2812H360.84L339.355 57.5352L334.473 57.0469L326.66 61.4414V64.8594L331.543 78.043L345.703 85.8555L352.051 89.2734L366.211 112.711L368.164 114.176L396.973 167.398L397.949 173.746L410.645 196.695L426.758 238.199L431.152 255.777L437.988 261.637L441.406 276.773L452.637 300.211L451.66 308.023L462.402 328.531L471.191 350.504V369.547L480.469 380.777L492.188 406.168L496.582 413.98L502.441 438.883L505.859 440.836L516.602 469.645L522.461 482.828L526.367 498.453L528.809 505.777L535.645 524.332L545.41 526.285L547.363 517.008L552.246 510.66L550.781 505.289L557.129 471.109L561.035 452.555L563.477 444.254L554.688 417.398L549.805 404.215L518.066 335.855L496.094 284.586L475.586 237.223L455.078 193.277L392.578 58.5117L381.836 41.4219L372.559 34.0977L391.602 29.7031L400.879 33.1211L419.922 73.1602L458.496 160.074L466.309 171.793L477.051 200.113L507.812 269.449L511.23 276.285L521.973 299.234L529.297 313.395L542.48 348.062L563.477 390.543L566.895 401.773L574.219 408.609L582.52 386.148L586.426 366.617L599.121 331.949L602.539 319.742L607.422 305.094L606.445 300.211L622.07 261.637L631.348 228.434L635.742 210.367L637.695 208.414L646.973 184.488L659.18 152.75L670.898 122.477L698.73 70.7188L710.449 53.1406L717.773 39.957L734.375 21.4023L755.859 4.80078L776.367 0.894531Z" fill="black"/>
</svg>
