<svg width="642" height="640" viewBox="0 0 642 640" fill="none" xmlns="http://www.w3.org/2000/svg">
<path d="M326.488 1.19531L349.926 3.63672L356.762 3.14844L370.434 7.54297L374.34 7.05469L386.059 10.4727L390.453 13.8906L394.848 13.4023L429.516 26.0977L461.254 43.1875L481.762 57.3477L509.105 84.2031L533.52 114.965V119.359L540.355 127.66L539.867 135.473L527.66 123.754L525.707 115.941L517.895 113.012L500.316 96.4102L476.879 82.7383L465.16 74.4375L450.023 69.0664L407.543 57.3477L395.336 55.8828L333.324 55.3945L328.441 55.8828L303.051 61.7422L248.852 75.4141L212.719 97.875L209.789 94.9453L205.395 102.27L194.652 105.199L167.797 125.219L157.055 134.008L148.754 141.332L127.758 164.77L114.574 180.395L92.6016 220.434L80.3945 254.125L69.6523 283.91L62.8164 363.012L67.6992 402.562L76.9766 443.578L84.3008 461.156L96.9961 486.059L105.297 498.754L106.762 505.59L115.551 510.961L122.875 520.238L143.383 539.77L182.934 568.578L223.949 588.598L259.594 594.945L303.051 598.852L327.465 597.875L340.648 594.945L353.344 592.504L375.805 587.133L413.891 573.949L436.84 562.719L496.898 515.355L533.031 472.875L543.773 456.273L558.91 430.883L564.77 413.305L569.652 410.375L586.742 357.641L591.137 292.211L592.602 283.91L585.277 236.547L577.953 212.621L564.77 184.301L561.84 180.395L563.305 176.488L575.512 183.812L598.461 209.203L619.457 243.871L620.434 250.707L632.641 277.562L639.965 311.742L641.43 360.082L635.57 395.727L626.781 433.324L615.062 450.414L616.527 454.809L607.738 477.758L598.949 489.477V494.359L580.883 520.238L568.676 530.98L545.727 557.836L525.219 575.414L499.34 595.922L468.09 612.035L460.766 616.43L441.234 621.312L426.586 628.637L366.527 639.379L335.277 639.867L315.746 637.426L289.867 638.402L269.848 632.055L231.762 619.848L203.441 608.129L155.102 579.32H152.66L116.039 551.977L113.598 549.535L102.855 539.281L84.3008 520.238L59.3984 489.965L42.3086 462.621L25.2188 430.395L15.4531 398.656L7.64062 363.988L0.804688 315.648L2.26953 281.957L13.5 226.293L30.1016 187.719L55.0039 136.938L73.5586 112.035L111.645 74.9258L169.262 35.375L171.215 34.8867L197.582 21.7031L221.508 16.332L228.344 10.9609L306.957 0.707031L326.488 1.19531ZM301.098 180.883L316.234 181.859L348.461 237.523L363.109 255.102L374.828 254.125L381.176 252.66L431.957 243.383L441.723 239.477H459.301L471.996 245.824L472.973 249.242L456.371 268.773L450.512 271.703L434.887 286.84L408.031 318.09L409.496 322.973L433.91 356.176L438.793 370.336L447.094 379.613L468.09 408.91L463.695 415.258L447.094 417.699L420.727 406.957L416.332 407.445L385.57 401.098L367.504 400.609L352.367 396.703L348.949 399.145V403.051L336.254 415.258L307.445 451.879L296.215 462.133L281.566 491.43L266.43 484.105L259.105 466.527V430.883L254.223 366.918L234.691 355.688L201.488 343.48L183.422 333.227L180.492 325.902L181.469 321.508L179.516 317.113L259.594 292.211L266.43 285.375L267.406 271.215L274.242 256.078L278.637 239.477L284.496 221.41L291.332 194.066L290.844 186.742L301.098 180.883ZM307.445 211.156L295.238 245.336L286.938 275.609L284.984 288.793L276.684 302.465L212.23 326.879L207.836 330.785L245.922 340.551L270.336 354.223L275.707 356.664L279.125 367.406L280.59 434.301L281.078 449.926L284.008 451.391L306.469 428.93L322.582 405.004V399.145L330.395 396.703L341.625 375.707L355.785 374.73L380.199 382.055L411.938 386.449L426.586 391.332V387.914L416.82 362.035L412.914 358.617L392.406 332.738L386.547 326.391L384.594 318.578L410.961 287.328L425.609 275.121L432.934 264.867L433.91 260.473L355.297 271.703L351.391 275.121L335.766 247.777L326 238.988L310.375 211.156H307.445Z" fill="black"/>
</svg>
