<svg width="606" height="777" viewBox="0 0 606 777" fill="none" xmlns="http://www.w3.org/2000/svg">
<path d="M377.156 0.515625H390.34L405.965 10.2812L426.961 36.1602L430.867 41.043L469.441 55.6914L485.066 66.9219H489.461L523.152 90.3594L525.105 96.2188H528.523L550.496 116.238L558.309 127.957L563.68 130.887V135.281L572.469 144.07V148.465H575.398L589.559 175.32V181.18L586.629 182.645L595.418 193.875L598.348 210.477L601.766 220.73V229.52V237.82L605.184 250.516V258.816L600.789 259.793L603.23 266.629L602.742 278.836L597.859 283.23L599.812 288.113L599.324 304.715L594.93 312.527L588.582 334.5L573.445 363.309L550.496 390.164L532.43 411.648L492.879 435.574L478.719 471.219L475.789 472.195V478.543L466.023 490.75L460.164 506.375L457.723 508.816L454.793 506.375L450.887 506.863L446.004 501.004L453.328 486.355L455.281 481.473L465.047 457.547L468.465 445.34L460.164 448.27L427.938 458.035L419.637 455.105L401.57 457.547L387.898 455.594L372.762 450.711L360.555 441.922L350.301 430.203L344.93 414.09L343.465 394.07V381.863L357.625 366.238L360.555 365.262L365.438 357.449L378.621 355.496L393.27 354.52L405.477 361.844L412.312 376.98L410.359 388.211L405.477 396.512L393.758 401.883L374.227 398.465L365.438 402.371V408.23L375.203 420.926L386.922 426.297L404.5 425.809L430.867 417.996L462.117 403.348L486.043 384.305L486.531 374.051V350.125L485.555 317.898L482.137 289.09L477.742 249.051V242.703L472.371 211.453L466.023 178.25L463.582 174.832L443.562 107.449L433.309 88.4062L418.66 59.1094L416.707 57.6445L391.316 50.3203L385.457 49.832L345.418 50.3203L283.895 56.668L276.082 58.6211L237.02 69.3633L221.883 74.7344L206.258 78.6406L185.262 86.9414L163.777 97.6836L127.645 119.168L109.09 136.258L93.9531 148.465L65.1445 178.25L45.125 208.523L33.8945 222.684L27.0586 251.492L23.6406 275.906L23.1523 289.09L24.1289 293.973L27.5469 306.668L31.9414 323.27L44.1484 338.406L49.0312 338.895L52.9375 345.73L62.2148 346.219L88.0938 346.707L110.555 336.941L126.18 322.781L138.875 300.809L142.781 277.859L138.875 262.723L134.48 261.746L132.527 256.863L124.227 254.91L132.527 248.074L143.758 250.027L169.148 260.77L183.309 273.465V278.348L188.68 282.742L187.215 288.113L189.168 290.066L191.609 308.621L190.633 310.574L184.285 313.504L187.703 317.41L185.262 330.594L173.055 347.195L153.035 364.773H148.152L135.945 374.539L115.438 379.422L112.996 381.375L95.9062 381.863L68.0742 379.422L44.1484 367.703L25.5938 351.59L24.1289 347.195L20.7109 345.73L5.57422 314.48L0.203125 288.602L0.691406 262.723L2.64453 250.516L15.8281 214.871L46.1016 166.043L63.6797 145.047L95.418 116.238L143.758 84.9883L196.492 63.5039L203.328 61.0625L224.812 52.7617L306.355 36.1602L345.906 31.7656L348.836 30.3008L390.828 32.7422L402.059 33.7188L386.922 14.6758L371.785 1.00391L377.156 0.515625ZM224.812 126.492L236.043 126.004L264.363 132.352L275.594 136.746L290.242 148.465L298.055 150.418L309.285 166.043L311.238 168.484L317.098 182.156L315.145 186.551L319.051 189.48L324.422 199.734L326.375 215.359L324.422 217.801L319.539 241.238L325.887 276.883L323.934 278.836L321.492 288.602L320.027 304.715L322.957 328.152L314.168 362.332L317.098 367.215L316.121 373.562L318.074 383.816L315.633 400.418L319.051 428.738V438.016L314.656 451.199L319.051 453.152L314.168 465.359V483.914L310.262 514.676V544.949L307.82 563.504L300.496 589.383L302.449 598.66L296.59 605.008L292.684 625.516L289.266 642.605L275.594 667.02L310.75 660.672L334.188 657.254L351.766 656.277L362.02 658.719L383.992 663.113L389.363 667.02L394.734 675.809L371.297 695.34L356.16 703.641L351.277 700.223L366.902 682.156L354.695 679.227L330.281 680.203L317.098 682.156L294.637 689.969H288.777L283.895 694.363L279.012 693.387L271.688 700.223H268.758L257.527 707.547L241.414 716.336L229.695 721.219L208.699 734.891L201.375 740.262L194.539 751.98L198.934 761.746L208.699 770.047L209.676 774.441L203.816 776.395L164.754 752.469L152.547 732.449L157.43 724.148L175.496 711.453L217 691.434L241.902 680.691L257.039 672.879L256.551 658.719L255.086 620.633L256.551 618.191L254.598 608.426L252.645 544.461L248.25 472.195L248.738 459.012L246.785 442.41L243.367 356.473L241.414 321.805L238.484 302.762L239.461 296.414L234.09 212.918L227.742 136.258L224.812 126.492ZM444.051 65.457L467.488 123.562L490.438 190.945L495.32 218.289L498.738 244.656L504.109 307.156L502.645 309.598L505.086 313.992L504.598 359.891L505.574 364.285L511.434 360.867L525.105 338.895L539.266 316.922L542.195 310.574V306.668L551.473 288.113L554.891 272L554.402 264.676L557.82 260.77L558.797 251.004L560.262 219.266V203.152L540.73 151.883L536.336 140.652L528.035 129.422L516.316 111.355L498.25 96.707L475.301 78.1523L455.77 68.875L444.051 65.457Z" fill="black"/>
</svg>
