<svg width="636" height="948" viewBox="0 0 636 948" fill="none" xmlns="http://www.w3.org/2000/svg">
<path d="M285.359 0.523438L287.312 2.47656L296.59 1.01172L323.445 3.94141L331.258 2.47656L384.969 12.7305L419.148 24.9375L432.82 31.2852L437.215 35.6797H443.562L473.836 52.2812L483.602 59.1172L512.898 84.0195L517.293 86.4609L537.312 106.969L538.289 111.852H541.707L557.332 134.801L565.633 144.078L564.656 147.984L569.539 153.844L574.91 167.027L581.746 170.934L583.699 177.77L585.164 185.094L594.93 206.578L598.836 226.109L599.812 230.016L601.766 230.504L603.23 238.316L611.531 277.379L612.996 301.305L614.461 326.695L610.555 328.648L614.461 338.414L610.066 360.875L612.996 366.734L606.648 386.266L609.578 388.219V393.102L599.812 416.539L601.277 420.445L596.883 428.746L595.418 442.906L586.141 457.555L586.629 462.438L578.816 473.668L565.145 499.547L544.148 522.008L540.73 528.844L511.434 561.07L503.133 567.418L495.32 570.836L489.461 576.207L471.883 591.832L455.281 599.156L424.031 618.688L425.984 635.777L423.543 651.891L425.008 653.355L424.031 692.418L425.496 706.578L427.938 768.59L431.844 772.984L435.262 797.887L445.516 830.602L458.211 861.363L459.676 864.781L463.582 863.805L468.953 876.988L482.137 896.031L503.133 913.609L531.941 925.328L539.266 928.258L549.52 927.77L571.004 922.398L581.746 919.957L602.254 903.844V898.961L611.043 883.336L607.137 858.434L606.16 857.457L607.137 852.086H602.742L598.348 858.922L586.141 864.781L576.863 867.223L559.773 862.34L553.914 854.527L550.496 843.785V828.16L555.379 815.465L568.074 806.188L584.676 801.793L591.512 806.188L594.93 804.723L608.113 808.141L619.832 819.371L627.645 832.066L633.016 839.879L635.945 857.945V871.129L632.039 898.473L628.621 900.426L616.414 918.004L596.395 934.605L571.004 943.395L556.355 945.836L552.938 947.301L553.426 947.789L520.711 944.859L501.668 939.977L453.328 909.703L435.262 885.777L422.566 863.805L419.148 856.48L406.941 835.484L400.594 809.605L392.293 787.633L389.363 767.613L386.434 763.219L381.551 700.719L382.039 636.754L365.926 642.613L330.281 649.938L282.918 655.797L242.391 651.891L221.395 648.473L192.586 638.707L163.777 626.988L137.898 610.875L130.086 599.156L112.02 584.02L94.9297 560.582L84.1875 547.398L76.8633 537.145L57.8203 492.223L51.4727 447.789L53.4258 435.582L51.9609 432.652L54.8906 421.91L52.9375 418.98L56.8438 397.008L61.7266 381.383L67.0977 360.875L75.3984 339.879L102.742 296.91L109.09 292.027L111.043 285.68L124.715 272.496L152.059 246.617L180.379 225.133L199.91 214.391L241.414 195.836L274.129 189.488L281.453 183.141L317.098 181.188L322.469 183.141L327.84 178.746L344.93 180.211L365.926 185.582L383.016 193.395H386.922L410.359 205.113L430.379 221.715L446.98 242.711L464.07 286.656L470.418 311.07L469.441 325.719L465.047 349.645L457.723 369.176L442.098 389.684L443.074 394.566L437.703 404.332L431.844 407.262L419.637 428.746L400.105 444.859L410.848 479.039L415.73 507.359L418.172 543.98L420.125 555.699L453.328 535.68L468.465 525.914L475.301 518.59L486.531 508.824L510.457 484.41L524.129 466.344L536.336 449.254L547.566 433.141L548.055 427.77L570.027 384.801L572.957 372.594L582.234 330.602L579.793 328.16L581.746 311.07L582.234 270.055L575.887 222.203L565.145 193.395L556.844 180.211L534.383 144.566L509.48 121.129L485.066 104.039L476.277 97.6914L443.074 78.6484L404.012 68.3945L388.875 66.4414L366.414 64L356.648 58.6289L325.887 60.0938V59.1172L300.496 58.6289L292.195 63.5117L286.824 61.5586L242.391 69.8594L238.973 72.7891L231.16 71.3242L200.398 84.5078L188.191 88.4141L156.453 107.457L125.691 128.453L118.855 134.312L92.4883 168.004L89.0703 170.934L88.0938 175.816L76.8633 187.047L77.8398 189.977L74.9102 193.395L68.0742 217.32L59.7734 233.922L54.4023 269.566L53.9141 282.262L58.7969 302.281L50.4961 304.723L30.9648 269.566L9.96875 234.898L7.03906 232.945L3.13281 223.18L0.203125 208.043L6.55078 177.77L12.4102 168.004L13.875 157.262L16.3164 156.285L33.8945 124.059L56.3555 97.2031L59.7734 93.2969L94.4414 62.5352L112.996 51.793L118.855 46.4219L161.336 22.9844L163.777 21.5195H173.055L196.492 13.2188L232.625 5.89453L285.359 0.523438ZM315.145 212.926L308.309 216.344L296.59 214.879L285.359 219.762L275.105 218.785L269.246 222.691L248.738 226.109L243.367 229.527L228.23 234.898L219.441 238.316L200.887 249.059L189.168 253.941L186.238 256.383L173.055 261.266L168.66 267.125L164.754 267.613L124.715 305.699L116.414 317.906H113.973L104.695 328.648L98.8359 345.25L94.9297 346.715L92 356.969L83.2109 380.406L76.8633 391.148L76.375 403.844L74.4219 405.797L72.957 412.633L69.5391 450.23L71.4922 471.227L82.2344 505.406L87.6055 518.102L97.8594 530.797L109.578 550.328L116.414 552.77L126.18 562.535L142.293 574.254L182.332 594.762L221.395 605.992L248.738 608.434L285.359 607.457L292.684 606.969L324.91 601.109L349.812 595.25L365.438 588.414L383.504 580.113L383.016 553.258L382.527 537.145L385.945 533.727L385.457 530.797L380.574 490.27L382.039 480.504L372.273 462.438L370.32 463.414L364.461 464.391L358.113 472.203L340.047 478.062L324.422 483.434L304.891 492.711L261.922 497.105L219.441 491.246L209.676 482.457L204.305 481.48L181.355 461.461L174.031 443.883L171.59 414.098L187.703 383.824L193.562 375.523L216.512 358.922L256.551 346.227L268.758 343.297L286.824 346.715L296.59 345.738L313.68 351.109L337.605 360.875L364.461 383.824L380.086 407.75L385.945 413.121L390.34 412.145L399.617 403.355L428.426 371.617L429.402 364.781L435.262 360.387L444.539 330.113L446.004 293.004L439.656 267.613L431.844 255.406L415.242 238.805L404.988 229.527L383.504 220.738L362.996 215.367L334.676 213.902L315.145 212.926ZM272.176 359.898L265.828 364.293L259.48 362.34L234.09 371.129L230.184 373.082L215.535 380.406L198.934 398.473L191.609 412.145L191.121 439L198.445 450.23L206.258 458.043L226.277 466.832L257.039 469.273L279.5 463.414L283.895 465.855L305.379 457.555L335.164 444.371L366.902 425.816L341.023 389.684L328.328 378.453L300.984 366.246L283.895 361.363L279.012 363.805L272.176 359.898Z" fill="black"/>
</svg>
