<svg width="707" height="824" viewBox="0 0 707 824" fill="none" xmlns="http://www.w3.org/2000/svg">
<path d="M433.797 0.71875L452.84 1.20703L468.953 30.0156L487.508 41.2461L520.223 58.3359L556.844 90.0742L577.352 113.512L585.164 127.672L597.371 154.527L600.789 169.176L608.113 183.824L609.578 215.074L606.648 244.371L604.207 248.277L606.648 254.625L598.348 268.785L586.141 295.152L585.652 303.941L578.328 313.219L560.75 329.82L532.918 354.723L510.945 365.953L503.133 374.742L475.301 381.578H472.371L462.605 385.973L473.348 396.227L472.371 398.668L482.137 407.945V411.852L490.438 419.176L503.621 444.566L504.109 449.449L516.316 476.793L521.199 490.465L528.523 528.551L536.336 546.129L540.73 585.68L543.66 596.422L560.262 667.223L563.191 671.129L560.75 676.012L566.609 686.266L571.004 702.867L574.422 722.398H574.91L592 762.926L604.695 781.969L611.043 784.898L618.367 794.664L621.297 795.641L622.273 799.547L639.852 803.941H654.012L673.543 792.711L679.402 779.527L676.473 776.598L665.73 777.574L656.941 773.18L650.105 763.414L648.152 748.277L653.523 737.535L668.172 728.258L690.145 734.605L700.887 748.766L706.258 761.461L703.816 781.969L687.703 804.918L684.773 807.359V809.801L662.312 820.543L643.27 823.473L611.531 820.055L582.234 805.406L555.379 784.898L525.105 747.301L512.41 729.234L496.785 700.914L485.555 674.059L480.184 647.203L473.348 632.066L458.699 581.773L451.375 550.035L446.492 511.461L441.121 474.352L426.473 406.969L422.078 396.227H410.848L372.762 398.18L366.414 393.785L348.836 396.715L323.934 384.508L315.145 374.254L312.215 362.535L318.074 344.957L341.023 335.68L371.297 333.727L378.133 332.75L413.777 340.562L415.73 348.375L420.613 346.422L431.844 354.723L439.656 347.887V342.516L456.746 303.453L464.07 281.48L469.441 261.461L467.977 255.602L475.301 229.723L477.742 207.262L480.184 188.707L478.23 182.359L480.672 144.762L468.465 85.6797L466.512 72.4961L454.305 47.5938L446.492 42.7109L385.457 30.9922L305.867 37.3398L295.125 38.8047L247.762 47.5938L245.809 48.5703L213.582 58.3359L181.355 69.5664L129.109 98.375L77.3516 139.879L41.2188 187.73L24.6172 225.816L23.1523 228.746L19.7344 254.625L21.1992 277.574L28.5234 296.617L42.6836 309.801L60.2617 313.219L97.8594 306.871L105.672 304.918L133.992 281.48L143.27 260.484L147.664 239.488L140.828 228.258L141.316 225.816L145.223 223.863L159.383 233.141L173.543 248.766L174.52 258.531H178.914L177.938 266.832L179.402 290.758L172.078 310.777L162.312 317.125L159.383 326.402L145.711 333.238L123.738 347.887L112.996 350.816L98.8359 355.699L87.6055 356.188L65.1445 354.723L61.2383 351.305L53.9141 353.258L32.4297 337.633L17.7812 320.055L9.48047 303.453L0.691406 274.156V246.812L0.203125 238.023L8.50391 207.75L16.8047 186.754L29.5 165.27L50.9844 136.461L77.3516 108.629L127.156 71.5195L198.934 39.7812L220.906 35.3867L231.16 29.5273L255.086 26.5977L290.73 19.7617L294.148 20.25L368.855 16.3438L397.664 16.832L434.285 22.2031L446.004 24.1562L433.309 3.64844L433.797 0.71875ZM246.297 107.164L275.105 114.488L318.074 139.879L324.91 147.203L325.887 155.016L332.723 158.434L339.07 178.941L334.188 191.637L327.84 224.352L321.98 237.047L319.539 242.418L313.68 255.602L314.168 272.691L310.75 274.645V291.246L303.914 301.5L299.031 320.055L290.73 340.074L285.848 365.953L283.895 375.23L285.359 378.648L279.5 393.297L274.617 413.805L262.898 439.195L261.434 460.191L258.016 476.305L249.715 489.488L250.203 503.16L243.855 535.875L242.391 542.223L245.32 544.176L237.996 564.684L239.461 575.914L228.719 584.703L231.16 598.375L226.766 604.723L219.441 630.602L289.754 620.836L298.055 622.789L314.168 635.484L297.566 658.922L286.824 662.34L281.941 661.363L273.641 668.199L264.363 667.711L283.895 639.879L238.973 646.227L236.531 645.25L207.234 653.551L162.801 670.152L160.359 670.641L106.16 700.914L95.418 715.074L99.8125 728.258L103.719 733.629L101.277 736.07L85.6523 724.84L84.6758 722.398L86.1406 717.027L75.8867 705.309L70.5156 686.266L78.8164 675.035L98.8359 665.27L125.691 656.48L135.945 655.992L176.961 641.832L186.727 596.422L185.75 581.773L192.586 530.992L196.98 514.879L197.469 500.719L199.422 479.723L205.281 445.543L206.746 416.734L208.699 410.875L219.93 318.59L218.953 308.824L230.672 227.77L235.066 208.238L242.879 113.023L246.297 107.164ZM484.578 58.3359L483.113 68.5898L491.902 93.4922L490.926 96.4219L492.391 98.375L499.715 135.484L497.762 139.879L501.18 168.199V209.215L494.832 238.023L490.926 266.832V270.25L487.508 271.715V282.457L483.602 290.27L475.301 316.148L456.746 352.281L485.066 333.238L508.016 315.172L544.637 273.18L547.566 264.391L564.168 231.676L570.027 186.266L568.562 175.523L557.332 131.578L558.797 129.137L554.402 124.254L551.961 115.465L545.125 108.629L526.082 83.2383L501.668 66.6367L484.578 58.3359ZM369.832 345.445L365.438 348.863L356.16 346.422L342 350.328L335.164 361.559L346.395 373.766L366.414 376.207L413.777 368.395L390.828 350.816L369.832 345.445Z" fill="black"/>
</svg>
