<svg width="501" height="730" viewBox="0 0 501 730" fill="none" xmlns="http://www.w3.org/2000/svg">
<path d="M362.02 1.25L371.297 0.273438L383.992 4.17969L388.875 2.71484L393.758 5.64453L403.523 5.15625L424.52 12.4805L444.051 26.6406L462.117 36.8945L478.719 54.4727L486.531 69.6094L489.949 71.5625L494.344 82.793L500.203 115.02L499.715 131.621L497.762 133.574L496.785 150.664L486.531 184.355L481.16 193.633L478.23 194.121L476.766 199.98L461.629 216.094L454.305 220L452.352 224.883L426.473 240.508L415.242 243.926L394.246 246.855L388.875 244.414L378.133 244.902L357.625 237.09L338.582 224.395L324.91 202.422L319.539 184.355L322.957 157.988L325.887 156.523V153.594L336.141 134.551L340.535 128.691L364.949 115.02L375.203 115.996L399.129 134.062L398.152 139.434H402.059L404.988 146.27L410.848 149.199V151.641L407.918 152.617L404.012 149.688L379.598 157.012L364.461 173.613L362.996 185.82L359.09 190.703L361.043 205.84L366.902 221.953L381.062 232.207L390.34 233.672L406.453 231.719L439.656 213.652L466.023 182.891L470.906 172.637L476.277 159.453L483.602 125.762L481.16 119.902L480.672 102.324L478.23 97.9297L480.672 93.0469L475.301 84.7461L472.859 82.3047L466.023 64.2383L448.445 48.6133L422.566 34.9414L392.293 29.082L364.949 29.5703L338.094 36.4062L307.82 50.0781L290.242 62.7734L288.289 60.8203L270.223 84.7461L259.969 96.9531L256.551 104.766L251.668 106.719L252.645 110.625L242.391 121.855L245.32 131.133L239.461 137.48L238.973 150.176L235.066 176.055L236.043 189.727L243.367 219.512L246.785 228.789L252.645 233.184L256.551 246.367L278.523 273.711L316.121 302.52L340.535 318.145L352.742 327.422L376.668 341.582L410.359 365.508L430.867 385.527L431.844 391.387L440.145 394.805L439.656 400.664L444.051 402.617L448.934 411.406L453.816 412.383L461.141 422.637L464.07 432.891L471.883 440.215L480.184 470.488L477.254 472.441L481.648 476.836L480.672 481.23L485.066 490.508L483.602 494.902L486.043 497.344V525.664L483.602 528.594L484.578 536.895L480.672 541.289L482.625 547.148L477.254 554.961L479.207 558.867L476.277 563.75V575.469L473.836 576.934L461.629 604.277L446.98 621.855V626.738L422.566 650.664L400.594 670.684L372.273 687.773L344.441 700.957L333.699 706.816H327.352L304.891 715.117L270.711 723.418L234.578 729.277L217.977 727.324H208.699L171.59 724.883L156.941 722.93L119.832 710.723L113.973 710.234L84.6758 695.098L62.2148 679.961L48.0547 665.801L17.293 625.273L16.3164 618.926L8.01562 599.395L0.203125 562.773L0.691406 533.965V530.059L4.10938 522.246L5.57422 503.203L14.3633 473.906L27.5469 445.586L55.3789 412.383L60.2617 412.871L62.2148 407.012L86.1406 388.945L122.273 372.344L153.035 365.02L197.957 360.137L217.977 362.578L253.133 369.902L254.598 371.855L257.527 372.344L287.312 387.969L292.684 388.945L295.125 395.781L301.961 394.805L309.773 408.477L312.703 410.918L321.004 415.801L336.629 444.121L337.117 445.586L341.512 448.516L345.906 469.512L342.488 472.441L348.348 494.902L342.488 499.785L346.883 502.227L341.512 516.875L342 520.293L337.605 526.641L340.535 529.57L336.141 532.988L329.793 544.707L313.68 565.703L311.727 569.609H305.867L279.012 588.164L259.969 593.047L221.883 595.977L204.793 589.629L190.633 578.887L173.543 559.844L165.242 530.547V526.641L170.125 511.992L181.844 493.926L190.633 488.555L211.141 481.23L214.559 485.625H219.441L226.766 492.949L230.672 499.297L233.602 505.645L229.695 509.062L228.23 515.898L217.977 533.477L218.953 533.965L204.793 533.477L192.586 529.57L189.656 533.965L187.703 545.195L191.609 557.891L205.77 575.469L224.812 579.375L244.832 579.863L252.645 575.469H256.062L277.547 556.426V555.449L283.895 545.684L283.406 542.754L298.055 510.039L300.984 469.023L293.172 442.656L283.406 422.148L267.781 404.57L244.344 387.48L223.836 381.133L198.445 375.762L169.148 377.715L161.336 380.645L123.738 394.805L104.207 410.43L100.301 412.383L72.957 438.262L57.332 462.188L50.0078 474.395L45.125 493.438L40.7305 520.781L39.7539 533.965L39.2656 550.566L44.6367 566.191L48.543 590.605L60.2617 616.484L72.4688 642.852L74.4219 644.805L78.8164 646.27L89.0703 660.918L102.742 673.125L135.945 694.121L154.988 701.934L186.238 706.328L219.93 707.305L224.812 705.352L231.648 708.281L237.02 704.863L257.039 701.445L259.48 700.469L269.246 699.004L297.078 689.238L320.516 675.078H321.98L341.023 662.871L360.066 646.758L369.344 637.969L389.852 611.113L403.035 587.188L407.918 568.633L415.73 538.359L414.754 522.734L420.613 511.504L417.684 504.18L419.148 491.973L417.195 488.066L413.289 467.07L405.477 439.238L400.594 424.102L383.992 395.293L382.527 393.34L366.414 378.691L362.508 371.367L358.602 369.902L348.348 359.648L330.77 344.023L324.91 339.141L263.387 295.195L245.809 282.5L216.512 254.18L201.863 232.207L183.797 185.82L181.844 146.27L180.867 138.457L186.727 128.203L185.75 125.273L195.516 96.9531L207.234 78.3984L233.602 49.1016L262.41 30.5469L299.031 9.55078L313.68 5.15625L333.699 4.17969L352.254 0.273438L362.02 1.25Z" fill="black"/>
</svg>
