<svg width="555" height="709" viewBox="0 0 555 709" fill="none" xmlns="http://www.w3.org/2000/svg">
<path d="M486.551 3.03516L505.594 7.91797L521.707 18.6602L533.914 21.1016L545.633 20.125L548.074 23.0547L554.422 25.9844L537.332 27.9375L531.961 53.8164L525.613 74.3242L515.848 91.4141L517.801 93.3672L512.918 102.156L512.43 106.551L501.688 140.242L496.805 144.637L494.852 155.379L490.945 158.309L489.48 175.398L484.109 181.258L476.297 202.254V207.625L471.902 210.555L466.531 224.227L467.02 227.645L463.602 228.133L462.137 218.367L467.508 188.094V186.141L468.973 164.168L477.273 119.734L480.691 82.625V71.3945L484.109 43.5625V34.7734L428.934 41.6094L414.773 42.5859L392.801 43.5625L377.176 49.4219L356.668 53.3281L345.926 52.3516L335.184 57.2344L329.324 91.4141L325.906 103.621L318.094 154.402L316.141 183.211L311.258 212.508L304.422 236.434L303.934 255.965L298.562 276.961L296.121 286.238L298.562 294.051L294.168 313.582L288.309 350.691L286.355 351.668L286.844 366.805L282.938 371.199L286.355 378.035L280.984 384.383L282.449 394.148L275.125 419.051V436.141L268.289 470.809L267.801 478.621L263.895 488.875V501.082L259.988 538.68L256.57 546.004L257.547 552.352L253.641 563.094L250.223 571.883L249.246 591.414L250.711 594.344L277.078 590.438L294.656 587.508L296.121 583.602L325.418 583.113L340.555 586.531L354.715 597.273L361.551 611.922L357.645 620.711L344.949 629.988L342.02 628.035L337.625 632.43L327.859 631.941L310.77 637.801L315.164 629.5L331.766 609.48L335.184 604.109L309.793 604.598L308.328 602.645L296.121 608.504L291.727 606.062L267.801 610.945L263.895 615.34L244.363 616.805L240.457 642.684L237.527 646.59L239.48 650.496L235.574 659.285L237.527 666.121L228.25 687.117V691.023L218.973 694.441L222.391 683.211L227.273 644.637L225.809 640.73L229.715 624.617L223.855 624.129L199.93 633.406L174.539 641.707L170.145 647.078L157.449 649.031L152.078 655.867L147.195 655.379L145.73 659.285L129.617 668.074L115.945 679.305L111.062 679.793L107.156 692L108.621 700.789L115.457 706.648L111.062 708.602L103.738 705.184L89.0898 690.535V683.699L84.207 678.816L83.7188 670.027L79.3242 659.285L79.8125 651.961L83.2305 650.496V648.055L115.457 633.895L124.246 630.477L139.383 624.129L161.355 621.199L162.332 584.578L165.262 563.094L163.797 556.746L167.703 542.098L166.238 535.75L169.168 526.473L166.727 524.031L174.539 456.648L175.516 424.91L180.887 372.664L179.422 352.156L178.934 345.809L184.793 311.629L184.305 292.098L188.699 257.43L189.188 249.129L194.07 201.766L197.488 142.195L197 116.316L197.488 84.0898L200.906 74.3242H195.535L193.582 73.3477L187.234 75.3008L149.148 79.207L106.18 86.043L85.1836 87.9961L74.4414 90.4375L70.5352 87.5078L68.0938 92.8789L62.7227 93.8555L51.0039 114.363L48.5625 116.805L43.1914 137.312L39.7734 140.73L39.2852 151.961L33.9141 154.891L35.8672 162.215L30.9844 174.91L28.0547 182.723L26.5898 191.512L17.8008 218.367L14.3828 219.832L10.4766 240.828L4.61719 250.594L0.222656 253.035L2.66406 228.133L3.15234 211.531L4.12891 181.258L9.98828 133.406L11.9414 77.2539L10.4766 55.2812L5.59375 49.9102L9.98828 47.4688L13.4062 33.7969L17.3125 33.3086L20.2422 36.2383L31.4727 39.168L48.0742 47.957L57.8398 58.2109L110.574 55.7695L127.664 52.8398L177.469 49.9102L213.113 48.4453L231.18 46.0039L234.598 47.957L241.434 46.0039L265.359 43.5625L291.727 38.6797L302.957 39.6562L319.559 35.2617H321.512L325.906 22.5664L323.465 17.6836L323.953 9.38281L328.348 2.05859L334.695 0.59375L344.949 4.5L339.09 30.8672L338.113 34.2852L340.066 37.2148H346.902L349.344 32.8203L375.223 29.8906L376.688 32.332L420.633 29.4023L423.074 27.9375L439.188 26.9609L456.766 23.543L469.949 25.0078L478.25 26.4727L486.062 23.543L486.551 3.03516ZM273.66 59.6758L271.707 63.0938H257.059L253.152 67.4883L251.688 75.7891L266.336 82.1367L265.359 88.4844L266.824 89.9492L269.266 89.4609L271.219 96.2969L269.266 113.875L272.684 126.082L264.383 139.754L262.918 171.004L259.5 190.047L254.617 209.578L260.965 210.555L254.617 222.273L260.477 238.875L254.617 252.059L254.129 262.312V272.566L248.27 304.305L249.246 307.723L246.805 311.141L246.316 333.602L238.992 343.855L230.691 388.777L220.438 439.07L223.367 449.324L218.973 469.344L215.066 470.32L212.625 493.758L212.137 502.059L209.695 504.5L205.301 525.496L200.418 534.285L189.188 588.484L187.234 603.133L189.188 606.551L186.746 610.457L195.047 610.945L199.441 608.992L213.602 604.109L231.668 599.715L234.598 600.691L240.457 558.699L244.363 534.773L245.34 528.914L254.129 475.691L252.664 470.809L259.012 435.164L257.547 429.793L261.941 419.051L263.406 395.125L269.266 368.27L271.219 363.875L272.684 340.438L277.566 308.699L277.078 307.234L280.008 301.863L281.473 278.914L285.379 275.984L284.402 269.637L291.238 241.805L294.656 222.762L298.074 198.836L304.422 164.656L310.281 137.312L309.305 127.547L312.234 121.688L313.211 90.4375L318.582 88.4844L315.164 80.1836L322 54.3047L320.047 54.793H316.141L301.492 57.7227L296.121 57.2344L273.66 59.6758Z" fill="black"/>
</svg>
