<svg width="647" height="729" viewBox="0 0 647 729" fill="none" xmlns="http://www.w3.org/2000/svg">
<path d="M229.695 5.48047L236.531 7.92188L249.227 21.1055L246.297 51.8672L263.387 38.6836L274.617 28.4297L273.152 21.5938L279.012 24.5234L284.871 32.3359L285.359 41.6133L273.152 50.8906L248.25 61.6328L244.832 121.691L246.785 129.504L247.762 151.965L246.297 193.957L247.762 225.207L245.32 239.855L248.25 371.691L251.668 400.5L252.156 425.891L261.922 495.227L264.363 503.527L270.711 528.918L269.734 532.336L273.641 544.055L272.664 548.938L277.059 556.262L279.5 571.887L280.965 573.84L287.801 592.883L290.242 605.09L296.59 623.645L300.496 629.016L303.914 641.223L308.797 649.523L315.145 658.312L346.395 661.73L384.969 655.383L406.453 642.199L409.871 642.688L412.312 637.316L432.332 623.156L435.75 616.809L441.121 609.973L459.676 589.953L462.117 580.676L473.348 551.379L477.254 548.938L480.184 543.566L479.207 538.195L484.578 526.965L483.602 519.152L486.531 514.27V507.434L491.414 500.598L501.18 454.699L505.574 439.562L509.969 426.379L508.504 415.148L512.41 392.688L515.34 389.27L522.176 338L528.523 281.359L533.406 219.836L533.895 195.91L531.941 192.98V186.633L534.383 183.215L531.941 175.402V152.453L533.895 150.012L530.965 148.547L532.918 139.27L530.965 125.598L534.383 121.691L528.523 107.531L531.453 105.578L529.012 68.957L530.477 57.2383L527.547 54.3086L493.367 52.8438L466.023 46.4961L457.723 15.7344L472.859 27.4531L485.555 31.8477L507.039 33.3125L568.562 26.4766L571.004 24.0352L577.84 25.0117L603.719 19.6406L615.438 13.293L621.785 6.45703L619.832 0.597656H628.133L644.734 8.41016L646.199 12.8047L644.734 18.1758L630.574 26.9648L593.465 39.6602L563.68 45.0312L590.047 58.2148L591.512 85.0703L587.605 88L592.488 97.7656L587.117 111.926L589.559 129.992L585.652 139.27L588.094 142.688L584.188 149.523L585.652 160.266L578.816 181.262L580.281 186.145L574.422 216.906L571.98 254.992L570.027 275.5L561.727 304.309L560.262 331.164L559.773 335.07L557.332 343.371L553.914 347.277L550.008 381.457L547.566 396.594L543.66 401.965L539.266 428.332L534.383 439.074L534.871 446.887L530.477 459.582L530.965 463.977L524.617 476.672L523.641 490.344L517.293 502.551L518.27 508.41L514.363 510.852L512.41 523.059L505.574 534.777L506.062 539.66L500.691 545.52L490.438 573.352L487.996 580.188L479.207 591.418L466.512 611.438L440.633 641.711L420.125 653.918L404.988 664.172L390.828 669.055L367.391 677.844L335.164 681.262L328.328 679.797L326.375 682.238L355.184 713L366.902 723.254L362.996 728.137L349.324 724.23L351.766 717.883L347.371 719.348L331.258 705.188L308.797 676.867L289.266 674.426L250.691 663.684L217.977 642.688L201.375 629.016L172.566 588L162.312 561.145L143.758 498.156L131.551 448.84L133.016 443.957L130.574 436.145L127.156 417.102L126.668 394.641L125.203 390.246L123.738 366.809L119.344 342.395V322.863L120.32 318.957L114.949 291.125L112.996 279.895L110.066 214.953L111.043 202.258L107.625 170.52L109.09 166.613L107.625 150.012L102.742 137.805L107.625 130.48L105.184 116.809L96.3945 118.762L78.8164 122.18L58.7969 126.086L49.5195 127.062L44.1484 129.504L16.8047 124.621L10.9453 118.762L9.96875 111.926L7.03906 111.438L0.203125 89.4648L4.10938 82.6289L7.52734 90.9297L14.8516 97.7656L29.9883 100.207L33.8945 103.625L54.4023 101.672L75.3984 98.7422L84.1875 96.3008L123.25 87.5117L129.598 82.1406L145.223 80.1875L147.176 78.2344H152.547L178.426 67.9805L198.934 64.0742L202.352 61.1445L204.793 61.6328L226.766 50.8906L226.277 23.0586V11.8281L229.695 5.48047ZM212.605 73.8398L173.543 90.4414L185.262 94.8359L181.355 99.7188L185.75 103.137L188.68 110.949L182.332 123.156L182.82 131.945L187.703 136.34L182.82 139.758L181.355 146.594L187.215 159.289L191.121 174.914L186.727 176.379L189.656 179.797L188.68 187.121L184.773 190.539L185.75 205.676L184.773 228.625L187.215 240.344L185.75 245.227L190.633 255.48L184.285 268.176L185.75 281.848L187.215 298.938L185.75 321.887L188.68 325.305L186.238 330.676L188.191 337.023L185.75 339.465L188.191 368.273L191.609 376.086V413.684L194.051 416.125L193.562 439.074L197.957 443.957L191.121 454.211L196.492 462.512L195.516 468.859L199.422 472.766L198.934 482.531L202.352 507.922L199.91 510.852L207.234 522.57L208.699 537.707L212.605 554.797L216.023 560.656L213.582 566.516L226.766 586.535L233.113 596.789L232.625 601.184L237.996 606.066L266.805 637.316L288.289 648.059L289.266 643.176L286.824 641.223L287.312 635.363L282.918 630.48L282.43 624.621L273.641 602.16L276.082 598.254L270.223 595.324L270.711 588.488L262.898 580.676L263.875 568.469L258.992 563.098L249.715 531.359L244.832 495.227L241.414 493.762L239.949 477.16L243.855 474.719L237.508 464.953L234.09 437.121L231.16 410.754L229.207 372.668L227.254 365.344L229.695 356.066L226.766 344.836L228.719 331.164L226.766 328.234L227.742 323.84L224.812 294.543L223.836 248.645L226.766 245.227L227.254 236.926L223.836 232.531L225.789 222.766L224.812 220.324L227.254 194.934L226.277 180.773L228.719 176.867L225.789 166.125L228.23 155.871L225.301 151.477L226.766 111.438L227.254 97.2773L224.812 74.3281L222.371 76.2812L219.93 73.3516L212.605 73.8398Z" fill="black"/>
</svg>
