<svg width="640" height="657" viewBox="0 0 640 657" fill="none" xmlns="http://www.w3.org/2000/svg">
<path d="M247.762 2.03125L262.898 0.566406L270.711 24.0039L296.102 109.941L312.703 172.93L323.445 210.527L329.793 236.895L334.188 242.266L335.652 253.984L334.676 256.426L339.07 258.379L358.602 324.785L361.043 337.48L363.973 340.41L372.762 367.754L372.273 372.637L375.691 377.52L375.203 382.891L381.551 398.027L379.598 404.375L384.48 406.816L383.992 414.629L390.34 425.859L389.852 428.301L400.594 453.203L400.105 455.156L406.941 452.715L407.43 447.832L419.148 437.578L430.867 422.93L430.379 417.559L448.934 395.098L450.398 390.703L457.234 386.797L460.164 381.426L470.906 369.707L481.648 352.129L498.738 336.016V331.621L520.711 308.672L533.406 290.117L542.195 281.328L543.172 276.445L549.031 270.098L568.074 242.754L592 188.555L599.812 167.07L605.184 128.008L604.207 98.2227L602.742 88.9453L590.535 63.0664L583.211 50.8594L565.633 40.1172L545.613 32.793H523.152L505.574 38.1641L483.602 50.8594L481.648 56.7188L477.254 59.1602L478.23 63.5547L473.348 69.9023V84.5508L476.766 86.0156L483.113 81.6211L486.531 83.5742L496.297 82.5977L505.574 83.0859L505.086 86.5039L514.852 102.129L513.387 107.988L497.273 121.66L482.137 128.496L469.93 126.055L453.328 113.359L444.539 91.3867L448.934 75.7617L450.887 73.8086V64.5312L464.559 46.9531L489.949 26.9336L494.832 24.0039L512.41 18.6328L537.312 17.168L559.773 20.5859L583.211 30.3516L616.902 56.7188L621.785 68.9258L625.691 71.3672L629.598 78.6914L637.41 101.152L634.969 110.918L639.852 133.867L634.48 178.301L629.598 186.113L624.715 204.18L602.254 242.754L583.211 271.074L576.375 278.887L555.867 309.16L541.707 323.809L535.848 333.574L508.504 362.871L477.742 395.586L471.395 399.004L473.348 403.398L466.512 405.84V410.234L451.863 422.441V426.836L443.074 431.719L442.098 434.648L438.191 436.602L439.168 440.996L426.961 454.18L423.543 455.645L412.801 468.828L408.895 479.57L418.66 502.52L417.684 506.426L419.148 505.938L422.566 511.797L421.59 518.633L426.473 522.051L427.938 545.488L422.078 550.371L420.125 546.465H417.195L400.594 508.379L394.734 497.148L373.738 521.074L369.344 531.816L360.555 544.512L356.648 542.07L348.836 555.254L363.973 572.344L367.879 592.852L371.785 602.129L369.344 604.57L370.32 608.477H366.414L368.367 612.871L359.09 619.219L354.695 625.078L333.211 627.031L334.188 631.426L328.328 632.402V629.473L315.633 607.5L303.914 631.914L298.055 656.816L292.684 648.027L296.102 640.703L294.148 637.285L301.961 602.617L306.844 581.133L304.891 579.668L305.867 578.203L302.449 574.785L303.426 566.484L301.961 558.672L299.52 556.23L293.172 535.723L285.848 511.797L280.965 503.008V498.613L273.641 481.035L271.688 472.734L265.828 447.832L264.363 442.949L260.945 440.996L258.016 431.23L248.738 391.191L230.184 341.875L231.648 337.48L224.812 321.367V319.414L222.371 309.648L219.441 298.418L216.512 295.977L213.582 278.398L211.141 276.445L212.117 268.633L207.723 266.68L200.887 249.59L182.82 200.273L156.453 100.176L153.523 96.7578L144.246 63.0664L128.133 67.4609L124.715 71.8555L107.625 76.7383L105.672 81.1328L85.6523 91.3867L76.375 93.3398L45.6133 112.871L39.2656 119.219L37.3125 128.496L32.4297 134.844L38.7773 140.703L43.6602 156.328L45.6133 159.746H42.1953L29.0117 152.91L15.8281 135.332L0.203125 107.012L1.17969 99.6875L9.48047 89.9219L28.0352 86.0156L45.6133 77.2266H47.0781L87.1172 66.4844L89.0703 62.5781L91.5117 64.043L117.391 53.3008L127.156 50.3711L155.965 43.5352L157.918 38.6523L181.355 35.2344L189.168 29.8633L225.789 23.0273L228.23 21.5625L237.02 23.0273L221.883 28.3984L205.77 35.2344L192.586 38.6523L189.168 44.5117L192.098 47.4414L206.258 45.9766L214.559 57.207L222.371 68.4375V81.1328L233.113 91.3867L231.16 100.176L236.531 107.5L236.043 111.895L246.297 136.797L244.344 142.168L249.227 145.586V151.934L253.621 161.699L261.922 177.812L264.852 190.02L263.387 198.32L266.805 202.227L265.34 207.109L267.781 210.039L268.758 216.875L273.152 219.805L272.664 232.012L274.617 233.477L279.012 252.52L281.941 267.168L288.289 297.441L292.195 309.648L296.102 315.996L295.613 319.902L298.055 322.832L302.449 340.41L303.914 347.734V358.477L309.773 375.566L308.797 380.449L312.215 387.285L309.285 391.191V396.074L313.68 398.027L316.609 407.793L319.539 412.676L319.051 429.277L327.84 453.203L333.211 467.852L334.676 478.105L339.559 487.383L340.535 499.59L343.953 501.543L350.301 523.516L346.883 532.793L350.789 529.375L351.277 526.934L371.297 498.125L379.598 486.406L384.969 474.688L380.574 458.574L371.297 435.625L364.461 411.699L362.02 399.492L359.09 383.867L356.16 380.938L357.137 375.078L353.23 363.848L348.348 353.105L342 328.691L333.211 303.301L330.77 299.395L331.258 295L326.375 287.188L327.84 283.281L321.98 270.586L322.469 262.773L317.586 258.379L312.215 235.918L305.379 218.34L305.867 204.668L301.473 200.273L297.078 186.602L293.172 166.582L288.777 162.676L281.453 133.379L281.941 129.473L279.012 126.055L278.523 123.125L258.992 54.7656L253.621 32.3047L245.32 2.51953L247.762 2.03125Z" fill="black"/>
</svg>
