<svg width="843" height="648" viewBox="0 0 843 648" fill="none" xmlns="http://www.w3.org/2000/svg">
<path d="M514.852 0.03125L534.383 1.98438L549.52 7.35547L560.75 16.6328L571.004 31.7695L572.957 35.6758L577.352 63.0195L577.84 94.7578L573.445 116.242L571.004 123.566L568.074 140.168L563.68 145.051L564.656 153.352L557.82 168L558.309 170.93L554.402 174.348L556.844 177.766L546.59 197.297L546.102 205.109L537.312 212.922L533.406 224.641L522.664 247.102L517.293 250.031V254.426L507.039 270.051L518.27 302.766L516.805 306.672L522.176 318.391L526.57 330.109L530.965 349.152L533.895 352.082L547.566 395.051V397.492L552.449 406.77L555.867 410.188L555.379 413.605L566.121 444.367L569.051 454.621L572.957 457.551L579.305 482.941L591.023 508.332V512.238L595.418 517.121L594.93 521.516L598.348 527.863L605.184 550.812L610.555 549.348L617.391 535.188L624.227 528.84L629.109 518.098L643.758 499.543L669.637 459.504L671.59 452.668L689.168 426.789L699.91 403.84L702.84 400.91L742.391 324.25L744.344 322.297L749.715 307.648L767.781 269.074L779.988 244.172L793.172 213.898L797.078 198.762L804.402 174.348L808.797 153.84L811.238 123.078L807.332 82.5508L796.59 57.1602L788.289 49.3477L779.5 48.3711L774.617 42.5117L761.922 43L751.668 41.0469L730.672 48.3711L726.766 54.2305L719.441 57.1602L710.652 73.2734L706.746 75.7148L704.305 92.3164H703.816L719.441 94.2695L733.113 98.6641V103.547L735.066 106.477L732.625 111.848L737.02 116.242L730.672 128.938L729.207 134.797L716.512 144.074L704.305 144.562L687.215 138.215L681.844 131.379L674.031 112.824L675.008 86.457V83.0391L689.656 58.625L691.609 52.7656L713.094 35.6758L734.578 28.3516L752.645 26.3984L777.547 27.8633L799.52 35.1875L814.656 45.9297L833.699 76.2031L842.977 111.848L841.023 147.492L840.047 156.281L837.117 159.699L839.559 164.094L835.652 176.789L830.77 195.344L826.375 198.762L821.98 221.223L804.402 257.844L791.219 285.676L788.777 288.605L788.289 290.559L778.035 309.113L771.688 321.809L768.27 323.762V328.645L765.828 329.621L757.039 347.199L745.809 368.195L741.414 371.613L740.438 376.008L716.512 415.07L682.82 471.711L680.867 473.664L633.504 548.859L620.809 576.691L617.879 606.965L598.348 630.402L591.023 631.379L575.398 646.516L564.168 619.172L551.473 584.504L533.406 531.281L529.012 515.656L521.199 496.613L516.316 485.871L504.598 455.109L503.133 445.344L500.691 438.508L498.25 436.066L479.695 391.633L475.301 375.031L463.582 347.199L460.652 343.293L435.262 376.496L424.031 391.145L421.59 397.98L399.129 427.277L395.223 433.625L375.203 461.457L342 510.773L344.93 545.441L349.324 555.695L347.371 565.461L353.23 582.062L350.789 585.969L353.719 606.965L345.906 617.219L337.605 607.941L340.535 595.246L336.629 585.969L337.605 581.086L332.723 569.367L330.281 543.488L326.863 535.676L319.539 544.465L312.215 561.066L306.844 569.855L302.938 591.828L304.891 594.758L302.938 608.918L286.336 625.52L283.406 626.496L281.941 630.402L273.152 636.262L274.129 641.633L266.805 647.98L254.109 642.609L250.691 616.242L250.203 606.965L246.785 596.711L236.531 541.047L231.648 516.145L226.766 497.102L227.742 492.707L224.324 483.918L220.418 461.457L217 456.574L215.047 448.762L209.188 407.258L202.84 376.496L201.375 368.684L194.539 333.039L193.074 327.668L188.191 296.906L185.262 286.652L181.355 269.074L175.496 239.289L171.102 216.34L163.777 188.996L159.383 179.23L159.871 173.371L151.082 145.539L135.945 80.5977L126.668 81.5742L118.367 86.9453H111.043L88.0938 99.1523L83.6992 100.617L65.6328 112.336L49.5195 122.102L38.2891 132.844L39.7539 138.215L35.3594 143.098L38.2891 147.492L36.8242 151.887L42.6836 160.676L48.0547 177.277L46.5898 178.742L36.8242 170.441L33.8945 164.582L28.5234 162.629L0.203125 124.055L3.62109 111.848L12.8984 107.453L18.2695 103.059L75.3984 78.1562L79.793 79.1328L90.5352 72.2969L104.207 67.9023L106.16 66.4375L127.645 59.6016L136.922 54.7188L158.406 47.3945L169.637 43L174.52 43.4883L178.426 40.0703L213.094 28.8398L210.652 35.1875L184.285 50.8125L181.355 60.5781H185.75L189.656 57.6484L196.98 60.5781L201.863 73.7617L201.375 80.1094L207.723 91.3398L206.258 101.594L211.141 104.035L213.094 109.406L219.93 140.656L218.953 154.328L225.301 159.699L233.602 187.531L232.625 190.949L238.484 212.434L240.438 232.941L238.484 235.871L241.902 261.75L247.762 275.91L244.832 284.211L248.738 297.883L247.762 300.324L251.18 317.414L254.109 317.902L258.504 342.316L261.922 346.223V352.57L259.48 355.012L258.504 361.848L264.363 374.543L263.387 378.938L262.41 383.82L266.316 392.609L264.852 395.539L266.316 411.164L278.035 445.344L280.477 456.574L278.523 460.48L282.918 477.082L288.777 522.98L292.195 525.422L294.637 549.836H297.078L315.633 521.516L321.004 511.262L320.516 492.707L300.008 388.703L297.078 379.426L298.055 370.148L287.801 325.227L282.918 301.301L278.035 279.816L280.965 273.469L272.176 247.59L271.688 233.43L267.781 228.547L261.922 179.719L254.109 136.75L237.508 62.5312L234.09 54.2305V41.5352L230.184 35.1875L231.16 29.3281L229.207 23.957L231.16 16.6328L227.254 14.1914V11.2617H236.531L243.855 18.0977L249.715 42.0234L247.762 45.9297L249.227 46.9062L258.504 78.1562L265.828 119.172L270.711 144.074V152.375L273.641 156.281L272.664 159.699L277.059 171.418L275.594 175.324L278.523 179.719L292.195 251.008L293.172 276.887L295.613 280.305L300.984 296.418L303.914 323.273L312.215 359.895L311.238 365.266L313.68 369.172L320.027 408.234L321.98 414.094L324.91 427.277L327.352 446.809L331.258 458.527L330.281 463.898L337.117 485.383L390.34 408.234L393.758 400.91L397.664 395.539L413.289 371.613L420.613 363.801L426.473 355.988L443.074 329.133L448.934 325.227L447.469 321.32L453.328 316.438L447.469 289.094L445.516 280.793L438.191 244.172L436.727 233.918L435.262 231.965L428.426 179.23L425.984 169.953L426.473 121.613L431.844 88.8984L438.68 70.3438L448.445 49.3477L469.93 19.0742L483.602 10.2852L514.852 0.03125ZM532.43 15.168L518.758 16.6328L503.621 23.957L499.227 32.7461L486.531 53.7422V60.0898L484.09 62.043L479.695 89.3867L480.672 91.8281L477.254 110.871L475.789 124.055L481.16 168.977L487.508 196.32L490.438 209.992L499.227 238.801L504.109 230.988L506.062 230.012L517.293 207.062L530.965 177.277L535.848 160.188L541.707 155.793L540.73 145.051L549.031 122.102L551.473 106.965L557.332 94.2695L554.891 88.4102L557.82 65.9492L556.355 46.9062L550.984 27.375L544.148 24.4453L532.43 15.168Z" fill="black"/>
</svg>
