<svg width="666" height="692" viewBox="0 0 666 692" fill="none" xmlns="http://www.w3.org/2000/svg">
<path d="M614.461 0.476562L625.691 4.38281L630.086 11.707L637.41 9.26562L651.57 37.5859L648.641 58.0938L637.41 75.6719L628.133 79.0898L620.32 85.4375L615.438 83.9727L607.137 87.8789L604.207 84.9492L598.348 85.9258L584.676 70.3008L583.211 55.1641L586.629 51.7461L595.906 55.6523L603.23 54.6758L612.508 43.9336L612.02 34.6562L607.625 31.2383V26.3555L596.395 25.8672L575.887 35.1445L528.523 92.2734L521.688 103.992L497.762 135.242L478.23 161.121L468.465 172.84L464.559 181.629L459.188 185.047L451.863 202.625L437.215 215.32L431.355 228.504L427.938 230.945L423.543 244.617L406.941 262.195L407.43 265.125L397.176 277.82L420.613 321.766L432.332 345.203L445.027 359.363L448.934 370.105L456.746 380.359V385.242L468.465 402.82L473.348 409.168L475.789 418.934L478.719 420.887L509.969 476.062V481.922L520.711 492.664L526.57 507.801L537.312 525.867L558.309 565.418L594.93 550.77L609.578 547.352L614.949 543.934L633.992 541.004H649.617L656.453 546.375L665.73 558.582L663.777 569.324L652.059 579.578L630.086 588.367L612.02 586.414L611.531 585.438L619.832 580.066L620.32 576.648L630.574 568.836L634.48 558.582L598.348 568.348L568.074 581.043L596.395 633.289V642.078L590.047 642.566L589.07 638.172L556.844 586.902L523.641 607.898L509.48 613.758L506.062 620.594L500.691 621.57L495.32 630.359L472.371 646.473L459.676 672.352L460.164 676.746L466.023 680.652L462.605 691.395L447.469 683.582L443.562 686.023L430.379 675.77L421.102 663.074L425.496 654.285L428.914 652.82V645.496L433.309 643.543L461.629 620.105L456.258 605.945L452.84 603.504L414.266 539.051L405.477 529.285L398.641 512.684L380.574 488.758L364.949 461.902L361.043 456.043L349.812 440.418L344.93 433.582L337.605 420.887L331.746 407.703L324.422 399.402L308.797 407.703L302.449 425.77L297.078 428.211L284.383 452.137L279.012 453.602L277.547 460.438L272.664 462.879L272.176 467.273L252.645 493.641L240.926 505.359L220.906 534.656L213.094 541.492L211.629 547.352L203.816 557.117L198.934 558.094L176.961 586.902L166.707 596.668L159.871 603.504L150.105 612.781L128.621 629.383L98.8359 644.52L81.7461 654.773L57.8203 659.168L50.0078 659.656L31.4531 656.727L10.9453 646.473L5.57422 639.637L0.203125 623.523L1.66797 601.551L5.57422 595.203L9.48047 582.508L30.4766 562L55.8672 550.77L77.8398 548.328L92.9766 556.141L97.8594 554.676L109.09 568.348L103.719 570.789L100.301 587.879L92 588.855L89.0703 593.25L81.7461 596.668L74.4219 595.203L66.1211 599.109L52.9375 579.578L54.4023 571.766L47.5664 572.254L35.8477 582.996L25.5938 601.551L24.6172 613.27L29.5 632.801L42.1953 638.66L61.2383 634.754L63.1914 631.824L83.6992 622.547L100.789 608.387H105.672L117.391 597.156L120.32 597.645L122.762 592.762L147.176 565.906L149.617 566.395L173.055 538.074L200.887 501.453L227.254 467.273L236.043 460.926L250.203 437.488L257.527 429.188L258.504 424.305L271.199 407.703V405.262L291.707 376.941L292.195 356.434L282.918 337.879L280.965 335.438L277.059 327.625L251.18 287.098L230.184 254.383L228.719 244.617L217.977 232.41L198.934 204.578L184.285 183.582L176.473 162.586L156.453 134.754L131.062 99.1094L120.809 97.6445L81.7461 116.688L57.8203 133.289L53.9141 144.52L54.4023 152.332L72.4688 177.723L62.2148 178.699L45.6133 168.445L26.082 145.496H20.7109L13.3867 130.359L17.293 123.035V119.129L42.6836 103.504L73.4453 93.25L125.691 69.3242L131.551 71.2773L165.242 54.1875L170.613 55.1641L191.121 47.8398L220.418 38.5625L225.301 44.4219L220.418 47.3516L193.562 62V71.7656L202.84 72.7422L203.816 84.9492L209.676 88.8555L216.023 106.434L223.836 118.641L234.578 133.289L242.391 147.449L260.945 171.863L262.41 176.258L283.895 203.113L286.336 213.855L290.242 218.25V222.645L297.078 229.969L295.613 234.363L301.961 247.547L317.586 269.52L334.676 292.469L368.367 262.684L356.16 241.688L352.742 238.758V231.434L345.418 226.551L346.395 220.691L341.512 211.414L314.168 162.586L310.262 158.191L301.961 140.613V137.684L297.566 131.824L283.406 104.48L282.918 101.551L249.227 36.1211L247.762 34.168L254.109 23.4258L260.945 27.332L307.332 110.34L310.262 114.246L307.332 117.176L314.656 129.871V134.754L328.816 153.797L345.906 185.535L375.203 239.246L379.598 243.641L384.48 241.199L418.172 194.812L419.148 188.465L424.52 185.535L435.262 166.492L439.656 157.703L460.164 136.707L474.812 112.781L494.344 86.9023L522.664 53.6992L530.965 41.9805H534.383L554.891 23.9141L583.211 6.33594L587.605 7.80078L592.488 2.91797H609.578L614.461 0.476562ZM386.922 296.375L367.391 315.906L357.137 328.602L359.09 337.879L362.996 340.809L372.762 359.363L380.086 373.035L385.945 375.477L396.199 395.984L399.617 407.215L408.895 416.98L420.125 431.629L419.148 436.023L426.473 441.395L424.52 457.02L433.797 463.855L457.234 507.312L456.746 516.102L464.559 523.426L474.812 549.305L477.742 567.859L490.926 576.648L501.18 598.133L505.574 591.785L508.992 593.738L535.359 576.648L539.266 577.137L542.195 573.23H545.125L544.148 566.395L527.059 540.516L512.41 515.613L508.992 513.172L499.715 495.594L500.203 491.688L479.207 457.996L473.348 451.648L473.836 447.254L446.004 399.891L445.027 393.543L434.773 384.754L435.262 377.43L414.754 346.668L396.199 320.789L395.223 307.605L386.922 296.375Z" fill="black"/>
</svg>
