<svg width="633" height="753" viewBox="0 0 633 753" fill="none" xmlns="http://www.w3.org/2000/svg">
<path d="M545.613 0.929688L576.375 9.23047L598.836 20.4609L611.043 27.7852L624.715 44.875L624.227 50.2461L628.133 54.1523L626.668 56.5938L629.598 58.5469L632.039 70.2656L628.621 75.1484L629.598 84.9141L626.18 90.7734L626.668 97.1211L618.367 123.977L596.883 147.902L582.723 168.41L568.074 180.129L563.68 185.012V187.941L559.773 189.406L550.008 200.637L537.312 211.379L516.316 228.469L500.203 243.117L454.793 279.25L440.633 292.922L433.309 295.852L426.961 305.129L408.406 318.801L406.941 321.73L400.105 324.66L404.988 334.426L415.73 346.145L416.707 351.027L423.543 358.352L423.055 364.211L426.473 367.141L425.984 370.559L432.82 376.906L428.426 380.812L434.285 386.672L426.473 387.648L421.59 377.395L388.875 336.379L377.645 348.586L375.691 355.422L368.367 366.652L366.902 378.371L368.367 380.812L362.508 400.832L360.066 408.156L356.16 429.641L352.742 454.055L350.789 455.031L351.766 462.844L343.465 476.516L344.441 480.422L345.418 487.258L342.488 490.188L344.441 497.512L338.094 500.93L339.559 505.324L336.141 514.113L339.07 518.996L334.188 530.715L336.141 538.039L333.699 539.992L330.281 550.246L326.375 555.129V560.012L323.445 562.941L324.422 570.266L319.051 593.703L317.586 600.539L300.496 628.859L304.402 630.812L296.59 637.648L297.078 643.02L302.449 645.461L312.703 641.555L318.562 642.043L321.98 638.625L345.906 637.648L358.602 641.555L362.508 640.09L381.551 650.344L384.48 656.691L387.41 657.668L390.828 663.039L388.875 671.34L382.527 679.152L369.832 684.523L366.902 682.57L353.719 685.5L350.789 683.059L357.625 673.781L362.996 658.156L356.648 655.715L349.812 656.691L345.418 655.715L317.098 662.551L294.637 667.922L280.965 676.711L275.594 674.758L268.758 681.594L264.363 680.617L250.691 686.477L217.488 702.102L214.07 706.984L200.887 714.797L184.773 734.816L191.609 749.953L189.168 752.883L173.543 740.188L173.055 735.793L167.684 727.98L163.777 706.984L169.148 697.707L173.543 691.359L202.84 676.223L237.02 661.086L243.855 659.133L255.574 654.738L257.039 643.996L260.457 620.559L264.852 605.422L266.805 578.078L273.641 534.621L274.129 510.207L279.012 488.723L280.965 477.492L279.5 470.656L282.43 453.078L287.801 413.527L290.73 390.09L288.289 383.742L286.336 356.398L274.617 337.355L273.641 329.055L269.246 326.613L266.805 317.336L257.527 310.988L251.668 297.805L245.809 283.645L235.555 273.879L233.602 266.555L217.977 240.676L191.121 204.543L189.656 201.613L175.008 184.523L162.312 158.156L154.5 147.902L141.805 130.812L138.875 124.465L135.945 120.559L128.621 111.281L123.25 96.6328L113.484 84.9141L82.7227 98.0977L59.7734 116.652L50.9844 120.07L47.0781 126.418L41.2188 125.93L36.8242 137.16L44.6367 148.391L48.543 151.809L53.9141 152.297L54.4023 155.227L47.5664 157.668L30.4766 146.438L28.5234 148.391L19.2461 143.02L7.03906 127.883L0.203125 113.234L9.48047 106.887H17.293L22.6641 102.004L33.8945 99.0742L58.3086 88.332L92 77.5898L112.996 69.2891L119.344 68.8008L138.387 62.4531L193.562 45.8516L190.633 57.082L179.402 64.8945L174.52 66.3594L175.496 72.2188L178.426 76.125L183.797 74.6602L189.656 86.3789L196.004 94.1914L195.027 97.6094L207.234 111.77L206.258 119.094L214.07 123L217.977 133.742L227.742 141.555L229.695 152.297L241.902 162.551L244.344 175.246L252.645 178.176L251.668 183.547L258.016 187.453L254.598 192.824L260.457 193.312L259.48 201.125L272.664 207.473L271.199 216.262L278.523 223.098L278.035 226.516L283.895 228.469L284.383 238.234L288.289 240.676L288.777 246.047L294.637 252.395L294.148 255.324L298.543 262.16L302.938 262.648L307.332 267.531L304.891 271.926L310.75 276.809L322.957 298.293L335.164 317.336L356.16 350.051L362.508 342.238L369.344 334.914L368.855 332.473L379.109 320.266L336.629 252.883L310.75 213.82L251.668 122.023L242.391 110.793L234.578 91.2617L220.418 66.3594L209.188 45.8516L198.934 33.6445L204.793 30.7148L218.953 33.1562L225.301 50.7344L230.672 53.6641L231.648 60.0117L234.578 62.9414L245.809 85.4023L256.551 96.6328L257.527 103.957L270.711 124.465L271.199 126.418L276.082 128.859L279.012 135.695L291.707 153.762L292.195 161.574L296.59 166.457L301.473 177.199L308.797 183.059L309.773 187.941L314.656 192.336L322.957 208.449L325.887 210.891L325.398 213.82L332.234 219.68L345.418 241.164L357.137 257.766L378.133 294.875L392.293 309.035L449.422 260.695L466.512 248.488L488.484 226.027L496.785 218.215L508.504 211.379L517.293 201.613L521.688 193.801L539.266 174.27L544.148 172.805L548.055 165.969L559.773 154.25L571.004 142.043L580.281 123L582.723 122.512L592.488 100.539L600.301 65.3828L597.859 62.9414L594.93 42.9219L573.934 26.8086L558.797 19.9727L552.938 18.5078L524.617 23.8789L514.852 27.7852L501.18 36.5742L501.668 40.4805L494.344 47.8047L490.926 56.1055L494.344 58.5469V72.2188L496.297 73.6836H500.203L501.18 68.8008L520.223 64.4062L531.453 82.4727L533.406 89.7969L529.988 97.6094L526.082 101.027L509.969 105.422L490.438 106.887L475.789 94.1914L475.301 86.3789L470.418 75.6367V50.7344L481.16 32.1797L488.484 22.9023L499.227 15.5781L507.039 12.6484L524.129 7.76562L545.613 0.929688Z" fill="black"/>
</svg>
