<svg width="692" height="676" viewBox="0 0 692 676" fill="none" xmlns="http://www.w3.org/2000/svg">
<path d="M193.848 0.292969L228.516 17.8711L247.07 29.5898L246.582 33.9844L255.371 49.1211L250.977 52.0508L248.535 64.7461L251.465 67.6758L295.41 77.9297L380.859 86.7188L430.664 85.2539L466.797 79.8828H469.727L474.609 76.9531L485.84 75.9766L510.254 66.6992L526.367 62.793L530.762 56.9336L544.434 52.5391L553.711 38.8672L573.242 19.3359L594.727 18.8477L594.238 24.707L597.656 28.6133L604.004 28.125L602.539 33.0078L605.469 34.9609L608.398 33.9844L613.77 40.332L620.605 52.5391L603.516 79.8828L587.402 103.32L569.824 125.293L551.27 154.102L540.527 168.75L537.598 179.004L520.508 188.281L519.043 200.488L511.719 203.418L512.207 210.742L508.301 212.695L497.559 228.809L489.258 243.945L482.91 247.363L471.68 254.688L472.168 263.477L463.867 268.359L460.449 284.961L453.613 292.285H450.684L440.43 305.957L439.453 311.816L435.059 314.258L431.641 320.605L421.875 335.742L412.109 343.555L409.668 350.879L401.367 358.691L384.277 371.387L385.254 376.27L381.836 379.688L345.215 424.609L344.238 430.957L338.379 434.863L335.449 442.188L330.078 442.676L305.664 471.484L295.41 480.762L281.738 508.105L269.043 525.195L264.648 533.008L255.859 538.867L252.441 548.633L256.836 551.074L274.902 554.004L288.086 559.863L294.434 551.074L308.594 537.891L318.359 528.613L331.543 510.059L363.77 476.367L387.207 447.559L390.137 446.582L404.297 424.609L417.969 410.938L448.73 371.875L450.195 364.551L474.121 337.695L483.398 323.047L500.488 300.586L507.812 284.961L515.625 279.59L536.621 246.875L553.223 224.414L565.43 209.277L566.895 203.418L576.172 194.141L591.309 172.168L615.723 135.059L637.207 106.738L662.598 68.1641L665.039 64.7461L667.48 49.1211L681.152 54.0039L683.594 64.7461V68.1641L669.434 95.5078L657.227 106.738L653.32 117.969L642.09 124.805L641.602 128.223L631.348 138.477L632.324 142.871L613.281 174.121L606.445 179.98L589.844 204.883L571.289 227.832V230.762L565.43 232.715L563.965 239.062L554.199 251.27L553.223 257.617L532.227 283.496L528.32 285.449L527.832 290.332L511.23 310.352L510.742 315.234L506.348 318.164L500.977 332.812L495.117 337.695L485.84 350.879L478.516 355.762L457.52 383.105L454.59 390.43L448.242 393.848L441.406 406.055L424.805 424.609H422.852L418.457 435.84L410.156 446.582L407.715 447.559L397.949 462.695L391.113 470.508L367.188 500.781L362.305 507.129L359.375 508.594L344.238 530.566H339.355L326.66 546.68L312.012 558.887L307.617 566.699L400.391 597.461L461.426 605.762H464.355H497.07L546.875 598.438L580.566 584.766L609.375 565.723L630.859 542.285L631.836 537.891L643.066 525.195L650.391 498.828L652.832 484.18L650.391 480.273L649.902 467.09L647.461 463.672L645.02 448.047L636.23 435.84L630.859 433.887L626.465 427.051L599.121 416.797L606.934 415.332L626.953 416.309L631.836 417.285L660.645 434.375L681.152 459.277L685.059 473.438L690.918 483.203L689.453 494.434L691.406 508.105L688.965 510.547L691.895 519.336L687.988 526.172L691.406 533.984L686.523 539.844L678.223 571.094L657.715 596.973L636.23 616.016L635.742 619.922L621.094 625.781L619.629 631.641L596.191 641.895L558.105 656.543L526.855 659.961L490.723 661.426L473.633 658.008L444.336 653.613L375.488 625.293L346.68 611.621L333.496 604.785L296.387 586.719L284.668 584.277L280.762 588.672L258.789 613.574L255.371 617.48L212.402 652.148L195.312 659.473L189.453 664.355L161.133 673.633L157.227 672.168L143.066 673.633L137.207 671.68V669.238L153.809 666.797L166.992 660.938L182.617 652.637L198.242 643.359L214.844 630.664L228.516 616.992L267.578 575L229.98 567.188L228.027 569.629L212.891 584.277L204.59 592.578L185.059 611.621L182.617 612.598L179.688 618.945L117.188 660.449L111.816 662.891L83.9844 670.703L74.707 675.098L71.7773 672.656L44.9219 675.098L23.4375 666.309L12.6953 656.055L1.46484 639.453L0 627.246L9.76562 601.367L31.7383 572.07L63.9648 552.539L103.516 539.844L138.184 535.938L166.992 537.891L188.477 539.355L222.168 496.387L260.254 447.559L288.574 413.379L299.316 397.754L299.805 392.871L319.824 366.504L329.102 357.715L354.492 315.723L368.164 296.191L373.535 293.75L389.648 271.777L404.785 252.734L423.828 224.414L426.27 222.461L444.824 192.188L445.801 188.281L452.148 179.004L463.379 165.82L501.465 112.109V106.25L511.719 92.5781L525.879 78.418L520.508 74.5117L506.348 85.7422L483.398 90.1367L472.168 94.043L471.191 96.4844L454.102 98.9258L424.316 106.25L360.352 109.18L288.086 101.367L258.301 96.4844L252.93 92.0898L239.746 91.6016L226.074 129.199L226.562 132.617L222.168 136.523L220.703 143.848L212.891 149.707L213.379 158.008L193.848 193.164L181.641 221.973L168.457 237.109V246.875L155.762 264.941L152.344 276.66L146.484 281.543L145.996 286.914L141.602 283.984L142.578 262.988L143.066 248.828L149.414 234.18L146.973 224.902L161.133 175.586L170.898 135.059L175.781 113.574L190.918 34.4727L188.477 29.1016L189.941 3.71094L193.848 0.292969ZM151.855 555.469L145.996 557.91L117.188 557.422L76.6602 570.605L59.5703 580.859L43.9453 595.996L39.5508 598.438L32.2266 608.691L20.9961 627.734L20.5078 637.012L32.2266 650.684L53.7109 645.801L84.4727 633.105L96.6797 623.828L106.445 615.039L118.164 608.691L131.348 595.02L167.48 557.422L151.855 555.469Z" fill="black"/>
</svg>
